<?xml version="1.0" encoding="utf-8"?>
<!-- Generator: Adobe Illustrator 16.0.4, SVG Export Plug-In . SVG Version: 6.00 Build 0)  -->
<!DOCTYPE svg PUBLIC "-//W3C//DTD SVG 1.1//EN" "http://www.w3.org/Graphics/SVG/1.1/DTD/svg11.dtd">
<svg xmlns="http://www.w3.org/2000/svg" xmlns:xlink="http://www.w3.org/1999/xlink" version="1.1" id="Layer_1" x="0px" y="0px" width="160.6px" height="179.6px" viewBox="0 0 160.6 179.6" xml:space="preserve">
<g>
	<g>
		<defs>
			<rect id="SVGID_1_" y="0" width="160.6" height="179.6"/>
		</defs>
		<clipPath id="SVGID_2_">
			<use xlink:href="#SVGID_1_"/>
		</clipPath>
		<path clip-path="url(#SVGID_2_)" fill="#039BA8" d="M11.3,61.6c-1.2-0.7-2.2-0.1-2.2,1.3v3.3c0,1.4,1,3.1,2.2,3.8l3.1,1.7    c1.2,0.7,2.2,0.1,2.2-1.3v-3.3c0-1.4-1-3.1-2.2-3.8L11.3,61.6z"/>
		<path clip-path="url(#SVGID_2_)" fill="#039BA8" d="M39.2,77.4c-1.2-0.7-2.2-0.1-2.2,1.3V82c0,1.4,1,3.1,2.2,3.8l3.1,1.7    c1.2,0.7,2.2,0.1,2.2-1.3v-3.3c0-1.4-1-3.1-2.2-3.8L39.2,77.4z"/>
		<path clip-path="url(#SVGID_2_)" fill="#039BA8" d="M67.2,93.2C66,92.6,65,93.1,65,94.5v3.3c0,1.4,1,3.1,2.2,3.8l3.1,1.7    c1.2,0.7,2.2,0.1,2.2-1.3v-3.3c0-1.4-1-3.1-2.2-3.8L67.2,93.2z"/>
		<path clip-path="url(#SVGID_2_)" fill="#039BA8" d="M11.3,91.7C10.1,91,9.1,91.6,9.1,93v3.3c0,1.4,1,3.1,2.2,3.8l3.1,1.7    c1.2,0.7,2.2,0.1,2.2-1.3v-3.3c0-1.4-1-3.1-2.2-3.8L11.3,91.7z"/>
		<path clip-path="url(#SVGID_2_)" fill="#039BA8" d="M39.2,107.5c-1.2-0.7-2.2-0.1-2.2,1.3v3.3c0,1.4,1,3.1,2.2,3.8l3.1,1.7    c1.2,0.7,2.2,0.1,2.2-1.3V113c0-1.4-1-3.1-2.2-3.8L39.2,107.5z"/>
		<path clip-path="url(#SVGID_2_)" fill="#039BA8" d="M67.2,123.3c-1.2-0.7-2.2-0.1-2.2,1.3v3.3c0,1.4,1,3.1,2.2,3.8l3.1,1.7    c1.2,0.7,2.2,0.1,2.2-1.3v-3.3c0-1.4-1-3.1-2.2-3.8L67.2,123.3z"/>
		<path clip-path="url(#SVGID_2_)" fill="#039BA8" d="M11.3,121.7c-1.2-0.7-2.2-0.1-2.2,1.3v3.3c0,1.4,1,3.1,2.2,3.8l3.1,1.7    c1.2,0.7,2.2,0.1,2.2-1.3v-3.3c0-1.4-1-3.1-2.2-3.8L11.3,121.7z"/>
		<path clip-path="url(#SVGID_2_)" fill="#039BA8" d="M39.2,137.5c-1.2-0.7-2.2-0.1-2.2,1.3v3.3c0,1.4,1,3.1,2.2,3.8l3.1,1.7    c1.2,0.7,2.2,0.1,2.2-1.3v-3.3c0-1.4-1-3.1-2.2-3.8L39.2,137.5z"/>
		<path clip-path="url(#SVGID_2_)" fill="#039BA8" d="M67.2,153.3c-1.2-0.7-2.2-0.1-2.2,1.3v3.3c0,1.4,1,3.1,2.2,3.8l3.1,1.7    c1.2,0.7,2.2,0.1,2.2-1.3v-3.3c0-1.4-1-3.1-2.2-3.8L67.2,153.3z"/>
		<path clip-path="url(#SVGID_2_)" fill="#039BA8" d="M149.8,61.6c1.2-0.7,2.2-0.1,2.2,1.3v3.3c0,1.4-1,3.1-2.2,3.8l-3.1,1.7    c-1.2,0.7-2.2,0.1-2.2-1.3v-3.3c0-1.4,1-3.1,2.2-3.8L149.8,61.6z"/>
		<path clip-path="url(#SVGID_2_)" fill="#039BA8" d="M121.8,77.4c1.2-0.7,2.2-0.1,2.2,1.3V82c0,1.4-1,3.1-2.2,3.8l-3.1,1.7    c-1.2,0.7-2.2,0.1-2.2-1.3v-3.3c0-1.4,1-3.1,2.2-3.8L121.8,77.4z"/>
		<path clip-path="url(#SVGID_2_)" fill="#039BA8" d="M93.9,93.2c1.2-0.7,2.2-0.1,2.2,1.3v3.3c0,1.4-1,3.1-2.2,3.8l-3.1,1.7    c-1.2,0.7-2.2,0.1-2.2-1.3v-3.3c0-1.4,1-3.1,2.2-3.8L93.9,93.2z"/>
		<path clip-path="url(#SVGID_2_)" fill="#039BA8" d="M149.8,91.7c1.2-0.7,2.2-0.1,2.2,1.3v3.3c0,1.4-1,3.1-2.2,3.8l-3.1,1.7    c-1.2,0.7-2.2,0.1-2.2-1.3v-3.3c0-1.4,1-3.1,2.2-3.8L149.8,91.7z"/>
		<path clip-path="url(#SVGID_2_)" fill="#039BA8" d="M121.8,107.5c1.2-0.7,2.2-0.1,2.2,1.3v3.3c0,1.4-1,3.1-2.2,3.8l-3.1,1.7    c-1.2,0.7-2.2,0.1-2.2-1.3V113c0-1.4,1-3.1,2.2-3.8L121.8,107.5z"/>
		<path clip-path="url(#SVGID_2_)" fill="#039BA8" d="M93.9,123.3c1.2-0.7,2.2-0.1,2.2,1.3v3.3c0,1.4-1,3.1-2.2,3.8l-3.1,1.7    c-1.2,0.7-2.2,0.1-2.2-1.3v-3.3c0-1.4,1-3.1,2.2-3.8L93.9,123.3z"/>
		<path clip-path="url(#SVGID_2_)" fill="#039BA8" d="M149.8,121.7c1.2-0.7,2.2-0.1,2.2,1.3v3.3c0,1.4-1,3.1-2.2,3.8l-3.1,1.7    c-1.2,0.7-2.2,0.1-2.2-1.3v-3.3c0-1.4,1-3.1,2.2-3.8L149.8,121.7z"/>
		<path clip-path="url(#SVGID_2_)" fill="#039BA8" d="M121.8,137.5c1.2-0.7,2.2-0.1,2.2,1.3v3.3c0,1.4-1,3.1-2.2,3.8l-3.1,1.7    c-1.2,0.7-2.2,0.1-2.2-1.3V143c0-1.4,1-3.1,2.2-3.8L121.8,137.5z"/>
		<path clip-path="url(#SVGID_2_)" fill="#039BA8" d="M93.9,153.3c1.2-0.7,2.2-0.1,2.2,1.3v3.3c0,1.4-1,3.1-2.2,3.8l-3.1,1.7    c-1.2,0.7-2.2,0.1-2.2-1.3v-3.3c0-1.4,1-3.1,2.2-3.8L93.9,153.3z"/>
		<path clip-path="url(#SVGID_2_)" fill="#039BA8" d="M28.4,42.4c-1.2-0.7-3.2-0.7-4.4,0l-3.1,1.8c-1.2,0.7-1.2,1.8,0,2.5l3.1,1.7    c1.2,0.7,3.2,0.7,4.4,0l3.1-1.7c1.2-0.7,1.2-1.8,0-2.5L28.4,42.4z"/>
		<path clip-path="url(#SVGID_2_)" fill="#039BA8" d="M55.5,26.7c-1.2-0.7-3.2-0.7-4.4,0L48,28.5c-1.2,0.7-1.2,1.8,0,2.5l3.1,1.7    c1.2,0.7,3.2,0.7,4.4,0l3.1-1.7c1.2-0.7,1.2-1.8,0-2.5L55.5,26.7z"/>
		<path clip-path="url(#SVGID_2_)" fill="#039BA8" d="M82.5,11.1c-1.2-0.7-3.2-0.7-4.4,0l-3.1,1.8c-1.2,0.7-1.2,1.8,0,2.5l3.1,1.7    c1.2,0.7,3.2,0.7,4.4,0l3.1-1.7c1.2-0.7,1.2-1.8,0-2.5L82.5,11.1z"/>
		<path clip-path="url(#SVGID_2_)" fill="#039BA8" d="M55.5,58.1c-1.2-0.7-3.2-0.7-4.4,0L48,59.8c-1.2,0.7-1.2,1.8,0,2.5l3.1,1.7    c1.2,0.7,3.2,0.7,4.4,0l3.1-1.7c1.2-0.7,1.2-1.8,0-2.5L55.5,58.1z"/>
		<path clip-path="url(#SVGID_2_)" fill="#039BA8" d="M82.5,42.4c-1.2-0.7-3.2-0.7-4.4,0l-3.1,1.8c-1.2,0.7-1.2,1.8,0,2.5l3.1,1.7    c1.2,0.7,3.2,0.7,4.4,0l3.1-1.7c1.2-0.7,1.2-1.8,0-2.5L82.5,42.4z"/>
		<path clip-path="url(#SVGID_2_)" fill="#039BA8" d="M109.6,26.7c-1.2-0.7-3.2-0.7-4.4,0l-3.1,1.8c-1.2,0.7-1.2,1.8,0,2.5l3.1,1.7    c1.2,0.7,3.2,0.7,4.4,0l3.1-1.7c1.2-0.7,1.2-1.8,0-2.5L109.6,26.7z"/>
		<path clip-path="url(#SVGID_2_)" fill="#039BA8" d="M82.5,73.7c-1.2-0.7-3.2-0.7-4.4,0l-3.1,1.8c-1.2,0.7-1.2,1.8,0,2.5l3.1,1.7    c1.2,0.7,3.2,0.7,4.4,0l3.1-1.7c1.2-0.7,1.2-1.8,0-2.5L82.5,73.7z"/>
		<path clip-path="url(#SVGID_2_)" fill="#039BA8" d="M109.6,58.1c-1.2-0.7-3.2-0.7-4.4,0l-3.1,1.8c-1.2,0.7-1.2,1.8,0,2.5l3.1,1.7    c1.2,0.7,3.2,0.7,4.4,0l3.1-1.7c1.2-0.7,1.2-1.8,0-2.5L109.6,58.1z"/>
		<path clip-path="url(#SVGID_2_)" fill="#039BA8" d="M136.7,42.4c-1.2-0.7-3.2-0.7-4.4,0l-3.1,1.8c-1.2,0.7-1.2,1.8,0,2.5l3.1,1.7    c1.2,0.7,3.2,0.7,4.4,0l3.1-1.7c1.2-0.7,1.2-1.8,0-2.5L136.7,42.4z"/>
		<path clip-path="url(#SVGID_2_)" d="M2.7,44.2c-0.5,0-0.9,0.1-1.4,0.4C0.5,45,0,45.9,0,46.9V133c0,1,0.5,1.9,1.4,2.3l77.5,43.9    c0.4,0.2,0.9,0.4,1.3,0.4c0.5,0,0.9-0.1,1.4-0.4c0.8-0.5,1.3-1.4,1.3-2.3V90.7c0-1-0.5-1.9-1.4-2.4L4,44.5    C3.6,44.3,3.2,44.2,2.7,44.2 M2.7,46.9l77.5,43.9v86.2L2.7,133V46.9z"/>
		<path clip-path="url(#SVGID_2_)" d="M157.9,44.2c-0.5,0-0.9,0.1-1.3,0.3L78.9,88.4c-0.8,0.5-1.4,1.4-1.4,2.4v86.2    c0,1,0.5,1.8,1.3,2.3c0.4,0.2,0.9,0.4,1.4,0.4c0.5,0,0.9-0.1,1.3-0.3l77.7-43.9c0.8-0.5,1.4-1.4,1.4-2.4V46.9c0-1-0.5-1.8-1.3-2.3    C158.9,44.3,158.4,44.2,157.9,44.2 M157.9,46.9V133l-77.7,43.9V90.7L157.9,46.9z"/>
		<path clip-path="url(#SVGID_2_)" d="M80.2,0c-0.5,0-0.9,0.1-1.3,0.4L1.4,44.5C0.5,45,0,45.9,0,46.9c0,1,0.5,1.9,1.4,2.3l77.5,43.9    c0.4,0.2,0.9,0.3,1.3,0.3c0.5,0,0.9-0.1,1.3-0.3l77.7-43.9c0.8-0.5,1.4-1.4,1.4-2.3c0-1-0.5-1.9-1.4-2.4L81.6,0.4    C81.1,0.1,80.7,0,80.2,0 M80.2,2.7l77.7,44.2L80.2,90.7L2.7,46.9L80.2,2.7z"/>
	</g>
</g>
</svg>
