<?xml version="1.0" encoding="utf-8"?>
<!-- Generator: Adobe Illustrator 16.0.4, SVG Export Plug-In . SVG Version: 6.00 Build 0)  -->
<!DOCTYPE svg PUBLIC "-//W3C//DTD SVG 1.1//EN" "http://www.w3.org/Graphics/SVG/1.1/DTD/svg11.dtd">
<svg xmlns="http://www.w3.org/2000/svg" xmlns:xlink="http://www.w3.org/1999/xlink" version="1.1" id="Layer_1" x="0px" y="0px" width="160.6px" height="179.6px" viewBox="0 0 160.6 179.6" xml:space="preserve">
<g>
	<path fill="#FFCD1E" d="M21.8,45.7l4.3,2.4l4.3-2.4l-4.3-2.5L21.8,45.7z M18.2,45.7l7.9-4.5l8,4.5l-8,4.5L18.2,45.7z"/>
	<path fill="#FFCD1E" d="M48.6,30.4l4.3,2.4l4.3-2.4l-4.3-2.5L48.6,30.4z M45,30.4l7.9-4.5l8,4.5l-8,4.5L45,30.4z"/>
	<path fill="#FFCD1E" d="M75.5,15.1l4.3,2.4l4.3-2.4l-4.3-2.5L75.5,15.1z M71.8,15.1l7.9-4.5l8,4.5l-8,4.5L71.8,15.1z"/>
	<path fill="#FFCD1E" d="M52.8,56.7l-8.2,4.7l8.2,4.6l8.2-4.6L52.8,56.7z M48.7,61.4l4.1-2.3l4.1,2.3l-4.1,2.3L48.7,61.4z"/>
	<path fill="#FFCD1E" d="M79.6,41.4l-8.2,4.7l8.2,4.6l8.2-4.6L79.6,41.4z M75.5,46.1l4.1-2.3l4.1,2.3l-4.1,2.3L75.5,46.1z"/>
	<path fill="#FFCD1E" d="M106.4,26.1l-8.2,4.7l8.2,4.6l8.2-4.6L106.4,26.1z M102.4,30.8l4.1-2.3l4.1,2.3l-4.1,2.3L102.4,30.8z"/>
	<path fill="#FFCD1E" d="M79.4,72.4L71.3,77l8.2,4.6l8.2-4.6L79.4,72.4z M75.3,77l4.1-2.3l4.1,2.3l-4.1,2.3L75.3,77z"/>
	<path fill="#FFCD1E" d="M106.3,57.1l-8.2,4.7l8.2,4.6l8.2-4.6L106.3,57.1z M102.2,61.7l4.1-2.3l4.1,2.3l-4.1,2.3L102.2,61.7z"/>
	<path fill="#FFCD1E" d="M133.1,41.8l-8.2,4.7l8.2,4.6l8.2-4.6L133.1,41.8z M129,46.4l4.1-2.3l4.1,2.3l-4.1,2.3L129,46.4z"/>
	<path fill="#FFCD1E" d="M8.6,59.4v9.3l8.4,4.7v-9.3L8.6,59.4z M14.9,69.9l-4.2-2.4v-4.7l4.2,2.4V69.9z"/>
	<path fill="#FFCD1E" d="M36.6,75.2v9.3l8.4,4.7V80L36.6,75.2z M42.8,85.8l-4.2-2.4v-4.7l4.2,2.4V85.8z"/>
	<path fill="#FFCD1E" d="M64.5,91.1v9.3l8.4,4.7v-9.3L64.5,91.1z M70.8,101.6l-4.2-2.4v-4.7l4.2,2.4V101.6z"/>
	<path fill="#FFCD1E" d="M8.6,89.9v9.3l8.4,4.7v-9.3L8.6,89.9z M14.9,100.4l-4.2-2.4v-4.7l4.2,2.4V100.4z"/>
	<path fill="#FFCD1E" d="M36.6,105.7v9.3l8.4,4.7v-9.3L36.6,105.7z M42.8,116.3l-4.2-2.4v-4.7l4.2,2.4V116.3z"/>
	<path fill="#FFCD1E" d="M64.5,121.6v9.3l8.4,4.7v-9.3L64.5,121.6z M70.8,132.1l-4.2-2.4v-4.7l4.2,2.4V132.1z"/>
	<path fill="#FFCD1E" d="M8.6,120.4v9.3l8.4,4.7v-9.3L8.6,120.4z M14.9,130.9l-4.2-2.4v-4.7l4.2,2.4V130.9z"/>
	<path fill="#FFCD1E" d="M36.6,136.2v9.3l8.4,4.7v-9.3L36.6,136.2z M42.8,146.7l-4.2-2.4v-4.7l4.2,2.4V146.7z"/>
	<path fill="#FFCD1E" d="M64.5,152v9.3l8.4,4.7v-9.3L64.5,152z M70.8,162.6l-4.2-2.4v-4.7l4.2,2.4V162.6z"/>
	<path fill="#FFCD1E" d="M144,64.2v9.3l8.4-4.7v-9.3L144,64.2z M146.1,65.4l4.2-2.4v4.7l-4.2,2.4V65.4z"/>
	<path fill="#FFCD1E" d="M116.1,80.1v9.3l8.4-4.7v-9.3L116.1,80.1z M118.2,81.2l4.2-2.4v4.7l-4.2,2.4V81.2z"/>
	<path fill="#FFCD1E" d="M88.1,95.9v9.3l8.4-4.7v-9.3L88.1,95.9z M90.2,97l4.2-2.4v4.7l-4.2,2.4V97z"/>
	<path fill="#FFCD1E" d="M144,94.7v9.3l8.4-4.7V90L144,94.7z M146.1,95.8l4.2-2.4v4.7l-4.2,2.4V95.8z"/>
	<path fill="#FFCD1E" d="M116.1,110.5v9.3l8.4-4.7v-9.3L116.1,110.5z M118.2,111.7l4.2-2.4v4.7l-4.2,2.4V111.7z"/>
	<path fill="#FFCD1E" d="M88.1,126.4v9.3l8.4-4.7v-9.3L88.1,126.4z M90.2,127.5l4.2-2.4v4.7l-4.2,2.4V127.5z"/>
	<path fill="#FFCD1E" d="M144,125.2v9.3l8.4-4.7v-9.3L144,125.2z M146.1,126.3l4.2-2.4v4.7l-4.2,2.4V126.3z"/>
	<path fill="#FFCD1E" d="M116.1,141v9.3l8.4-4.7v-9.3L116.1,141z M118.2,142.2l4.2-2.4v4.7l-4.2,2.4V142.2z"/>
	<path fill="#FFCD1E" d="M88.1,156.8v9.3l8.4-4.7v-9.3L88.1,156.8z M90.2,158l4.2-2.4v4.7l-4.2,2.4V158z"/>
	<g>
		<defs>
			<rect id="SVGID_1_" y="0" width="160.6" height="179.6"/>
		</defs>
		<clipPath id="SVGID_2_">
			<use xlink:href="#SVGID_1_"/>
		</clipPath>
		<path clip-path="url(#SVGID_2_)" d="M2.7,44.2c-0.5,0-0.9,0.1-1.4,0.4C0.5,45,0,45.9,0,46.9V133c0,1,0.5,1.9,1.4,2.3l77.5,43.9    c0.4,0.2,0.9,0.3,1.3,0.3c0.5,0,0.9-0.1,1.4-0.4c0.8-0.5,1.3-1.4,1.3-2.3V90.7c0-1-0.5-1.9-1.4-2.3L4,44.5    C3.6,44.3,3.2,44.2,2.7,44.2 M2.7,46.9l77.5,43.9v86.2L2.7,133V46.9z"/>
		<path clip-path="url(#SVGID_2_)" d="M157.9,44.2c-0.5,0-0.9,0.1-1.3,0.3L78.9,88.4c-0.8,0.5-1.4,1.4-1.4,2.4v86.2    c0,1,0.5,1.8,1.3,2.3c0.4,0.2,0.9,0.4,1.4,0.4c0.5,0,0.9-0.1,1.3-0.3l77.7-43.9c0.8-0.5,1.4-1.4,1.4-2.4V46.9c0-1-0.5-1.8-1.3-2.3    C158.9,44.3,158.4,44.2,157.9,44.2 M157.9,46.9V133l-77.7,43.9V90.7L157.9,46.9z"/>
		<path clip-path="url(#SVGID_2_)" d="M80.2,0c-0.5,0-0.9,0.1-1.3,0.4L1.4,44.5C0.5,45,0,45.9,0,46.9c0,1,0.5,1.9,1.4,2.3l77.5,43.9    c0.4,0.2,0.9,0.4,1.3,0.4s0.9-0.1,1.3-0.3l77.7-43.9c0.8-0.5,1.4-1.4,1.4-2.3c0-1-0.5-1.9-1.4-2.4L81.6,0.4    C81.1,0.1,80.7,0,80.2,0 M80.2,2.7l77.7,44.2L80.2,90.7L2.7,46.9L80.2,2.7z"/>
	</g>
</g>
</svg>
