<?xml version="1.0" encoding="utf-8"?>
<!-- Generator: Adobe Illustrator 16.0.4, SVG Export Plug-In . SVG Version: 6.00 Build 0)  -->
<!DOCTYPE svg PUBLIC "-//W3C//DTD SVG 1.1//EN" "http://www.w3.org/Graphics/SVG/1.1/DTD/svg11.dtd">
<svg xmlns="http://www.w3.org/2000/svg" xmlns:xlink="http://www.w3.org/1999/xlink" version="1.1" id="Layer_1" x="0px" y="0px" width="301.6px" height="126.7px" viewBox="0 0 301.6 126.7" xml:space="preserve">
<g>
	<g>
		<defs>
			<rect id="SVGID_1_" x="0" width="301.6" height="126.7"/>
		</defs>
		<clipPath id="SVGID_2_">
			<use xlink:href="#SVGID_1_"/>
		</clipPath>
		<path clip-path="url(#SVGID_2_)" d="M150.4,126c13,0,23.6-10.5,23.6-23.6c0-13-10.6-23.6-23.6-23.6c-13,0-23.6,10.5-23.6,23.6    C126.8,115.4,137.4,126,150.4,126"/>
		
			<ellipse clip-path="url(#SVGID_2_)" fill="none" stroke="#6C6361" stroke-width="1.417" cx="150.4" cy="102.4" rx="23.6" ry="23.6"/>
		<path clip-path="url(#SVGID_2_)" fill="#FFFFFF" d="M81.1,21.1c1.4-0.6,2.3-2,2.3-3.5c0-2.1-1.7-3.9-3.9-3.9    c-2.1,0-3.9,1.7-3.9,3.9c0,1.6,0.9,2.9,2.2,3.5c-5.2,1-4.6,7.2-4.6,7.2h12.4C85.8,28.3,86.1,22.2,81.1,21.1"/>
		<ellipse clip-path="url(#SVGID_2_)" fill="none" stroke="#6C6361" stroke-width="0.506" cx="79.5" cy="21" rx="15.9" ry="15.9"/>
		<path clip-path="url(#SVGID_2_)" fill="#FFFFFF" d="M151.3,16.2c1.4-0.6,2.3-2,2.3-3.5c0-2.1-1.7-3.9-3.9-3.9    c-2.1,0-3.9,1.7-3.9,3.9c0,1.6,0.9,2.9,2.2,3.5c-5.2,1-4.6,7.2-4.6,7.2H156C156,23.5,156.3,17.4,151.3,16.2"/>
		
			<ellipse clip-path="url(#SVGID_2_)" fill="none" stroke="#6C6361" stroke-width="0.506" cx="149.8" cy="16.2" rx="15.9" ry="15.9"/>
		<path clip-path="url(#SVGID_2_)" fill="#FFFFFF" d="M17.7,61.8c1.4-0.6,2.3-2,2.3-3.5c0-2.1-1.7-3.9-3.9-3.9    c-2.1,0-3.9,1.7-3.9,3.9c0,1.6,0.9,2.9,2.2,3.5C9.4,62.8,10,69,10,69h12.4C22.4,69,22.7,62.9,17.7,61.8"/>
		
			<ellipse clip-path="url(#SVGID_2_)" fill="none" stroke="#6C6361" stroke-width="0.506" cx="16.2" cy="61.7" rx="15.9" ry="15.9"/>
	</g>
	
		<line fill="none" stroke="#FFFFFF" stroke-width="2.126" stroke-linecap="round" stroke-linejoin="round" stroke-dasharray="0,6.667" x1="150.5" y1="69" x2="150.5" y2="39"/>
	<path fill="none" stroke="#FFFFFF" stroke-width="2.126" stroke-linecap="round" stroke-linejoin="round" d="M150.5,35.7   L150.5,35.7 M150.5,75.7L150.5,75.7"/>
	
		<line fill="none" stroke="#FFFFFF" stroke-width="2.126" stroke-linecap="round" stroke-linejoin="round" stroke-dasharray="0,6.451" x1="37.6" y1="74.7" x2="120.4" y2="101.7"/>
	<path fill="none" stroke="#FFFFFF" stroke-width="2.126" stroke-linecap="round" stroke-linejoin="round" d="M123.5,102.7   L123.5,102.7 M31.5,72.7L31.5,72.7"/>
	
		<line fill="none" stroke="#FFFFFF" stroke-width="2.126" stroke-linecap="round" stroke-linejoin="round" stroke-dasharray="0,6.267" x1="94.3" y1="42.2" x2="133.2" y2="78.5"/>
	<path fill="none" stroke="#FFFFFF" stroke-width="2.126" stroke-linecap="round" stroke-linejoin="round" d="M135.5,80.7   L135.5,80.7 M89.7,37.9L89.7,37.9"/>
	<g>
		<defs>
			<rect id="SVGID_3_" x="0" width="301.6" height="126.7"/>
		</defs>
		<clipPath id="SVGID_4_">
			<use xlink:href="#SVGID_3_"/>
		</clipPath>
		<path clip-path="url(#SVGID_4_)" fill="#FFFFFF" d="M283.9,61.8c-1.4-0.6-2.3-2-2.3-3.5c0-2.1,1.7-3.9,3.9-3.9    c2.1,0,3.9,1.7,3.9,3.9c0,1.6-0.9,2.9-2.2,3.5c5.2,1,4.6,7.2,4.6,7.2h-12.4C279.2,69,278.9,62.9,283.9,61.8"/>
		
			<ellipse clip-path="url(#SVGID_4_)" fill="none" stroke="#6C6361" stroke-width="0.506" cx="285.4" cy="61.7" rx="15.9" ry="15.9"/>
	</g>
	
		<line fill="none" stroke="#FFFFFF" stroke-width="2.126" stroke-linecap="round" stroke-linejoin="round" stroke-dasharray="0,6.515" x1="263.3" y1="74.7" x2="179.6" y2="101.7"/>
	<path fill="none" stroke="#FFFFFF" stroke-width="2.126" stroke-linecap="round" stroke-linejoin="round" d="M176.5,102.7   L176.5,102.7 M269.5,72.7L269.5,72.7"/>
	<g>
		<defs>
			<rect id="SVGID_5_" x="0" width="301.6" height="126.7"/>
		</defs>
		<clipPath id="SVGID_6_">
			<use xlink:href="#SVGID_5_"/>
		</clipPath>
		<path clip-path="url(#SVGID_6_)" fill="#FFFFFF" d="M221,21.1c-1.4-0.6-2.3-2-2.3-3.5c0-2.1,1.7-3.9,3.9-3.9s3.9,1.7,3.9,3.9    c0,1.6-0.9,2.9-2.2,3.5c5.2,1,4.6,7.2,4.6,7.2h-12.4C216.4,28.3,216.1,22.2,221,21.1"/>
		<ellipse clip-path="url(#SVGID_6_)" fill="none" stroke="#6C6361" stroke-width="0.506" cx="222.6" cy="21" rx="15.9" ry="15.9"/>
	</g>
	
		<line fill="none" stroke="#FFFFFF" stroke-width="2.126" stroke-linecap="round" stroke-linejoin="round" stroke-dasharray="0,6.275" x1="208" y1="42.3" x2="169.7" y2="79.5"/>
	<path fill="none" stroke="#FFFFFF" stroke-width="2.126" stroke-linecap="round" stroke-linejoin="round" d="M167.5,81.7   L167.5,81.7 M212.4,37.9L212.4,37.9"/>
	<g>
		<defs>
			<rect id="SVGID_7_" x="0" width="301.6" height="126.7"/>
		</defs>
		<clipPath id="SVGID_8_">
			<use xlink:href="#SVGID_7_"/>
		</clipPath>
		<path clip-path="url(#SVGID_8_)" fill="#FFFFFF" d="M152.7,102.5c2-0.9,3.4-2.9,3.4-5.2c0-3.2-2.6-5.7-5.7-5.7    c-3.2,0-5.7,2.6-5.7,5.7c0,2.3,1.4,4.3,3.3,5.2c-7.6,1.5-6.8,10.7-6.8,10.7h18.4C159.6,113.2,160.1,104.2,152.7,102.5"/>
	</g>
</g>
</svg>
