<?xml version="1.0" encoding="utf-8"?>
<!-- Generator: Adobe Illustrator 16.0.4, SVG Export Plug-In . SVG Version: 6.00 Build 0)  -->
<!DOCTYPE svg PUBLIC "-//W3C//DTD SVG 1.1//EN" "http://www.w3.org/Graphics/SVG/1.1/DTD/svg11.dtd">
<svg xmlns="http://www.w3.org/2000/svg" xmlns:xlink="http://www.w3.org/1999/xlink" version="1.1" id="Layer_1" x="0px" y="0px" width="278.4px" height="116.1px" viewBox="0 0 278.4 116.1" xml:space="preserve">
<g>
	<g>
		<defs>
			<rect id="SVGID_1_" x="2.7" y="1.1" width="273" height="113.9"/>
		</defs>
		<clipPath id="SVGID_2_">
			<use xlink:href="#SVGID_1_"/>
		</clipPath>
		
			<ellipse clip-path="url(#SVGID_2_)" fill="none" stroke="#6C6361" stroke-width="1.3897" cx="244.2" cy="50.2" rx="21.6" ry="21.6"/>
		<path clip-path="url(#SVGID_2_)" fill="#FFFFFF" d="M244.2,61c6,0,10.8-4.8,10.8-10.8c0-6-4.8-10.8-10.8-10.8s-10.8,4.8-10.8,10.8    C233.5,56.2,238.3,61,244.2,61"/>
		
			<path clip-path="url(#SVGID_2_)" fill="none" stroke="#FFFFFF" stroke-width="2.085" stroke-linecap="round" stroke-linejoin="round" stroke-dasharray="0,5.647" d="    M249.6,59.6c2.4-1.4,4.3-3.8,5-6.5"/>
		
			<path clip-path="url(#SVGID_2_)" fill="none" stroke="#FFFFFF" stroke-width="2.085" stroke-linecap="round" stroke-linejoin="round" stroke-dasharray="0,5.647" d="    M253.6,44.8c-1.4-2.4-3.8-4.3-6.6-5"/>
		
			<path clip-path="url(#SVGID_2_)" fill="none" stroke="#FFFFFF" stroke-width="2.085" stroke-linecap="round" stroke-linejoin="round" stroke-dasharray="0,5.647" d="    M238.9,40.9c-2.4,1.4-4.3,3.8-5,6.5"/>
		
			<path clip-path="url(#SVGID_2_)" fill="none" stroke="#FFFFFF" stroke-width="2.085" stroke-linecap="round" stroke-linejoin="round" stroke-dasharray="0,5.647" d="    M234.9,55.6c1.4,2.4,3.8,4.3,6.5,5"/>
		
			<path clip-path="url(#SVGID_2_)" fill="none" stroke="#FFFFFF" stroke-width="2.085" stroke-linecap="round" stroke-linejoin="round" d="    M244.2,61L244.2,61 M233.5,50.2L233.5,50.2 M244.2,39.4L244.2,39.4 M255,50.2L255,50.2"/>
		<path clip-path="url(#SVGID_2_)" fill="none" stroke="#6C6361" stroke-width="1.3897" d="M25,83.9c11.9,0,21.6-9.6,21.6-21.6    c0-11.9-9.7-21.6-21.6-21.6C13,40.8,3.4,50.5,3.4,62.4C3.4,74.3,13,83.9,25,83.9z"/>
	</g>
	
		<line fill="none" stroke="#FFFFFF" stroke-width="2.085" stroke-linecap="round" stroke-linejoin="round" stroke-dasharray="0,6.6042" x1="25" y1="51.8" x2="25" y2="8.9"/>
	<path fill="none" stroke="#FFFFFF" stroke-width="2.085" stroke-linecap="round" stroke-linejoin="round" d="M25,5.6L25,5.6    M25,58.4L25,58.4"/>
	<g>
		<defs>
			<rect id="SVGID_3_" x="2.7" y="1.1" width="273" height="113.9"/>
		</defs>
		<clipPath id="SVGID_4_">
			<use xlink:href="#SVGID_3_"/>
		</clipPath>
		<circle clip-path="url(#SVGID_4_)" fill="none" stroke="#FFFFFF" stroke-width="2.085" cx="25" cy="62.6" r="4.2"/>
		<polygon clip-path="url(#SVGID_4_)" fill="#FFFFFF" points="25,1.1 19,7.5 30.9,7.5   "/>
		
			<ellipse clip-path="url(#SVGID_4_)" fill="none" stroke="#6C6361" stroke-width="1.3897" cx="133.4" cy="50.4" rx="21.6" ry="21.6"/>
		
			<path clip-path="url(#SVGID_4_)" fill="none" stroke="#FFFFFF" stroke-width="2.085" stroke-linecap="round" stroke-linejoin="round" stroke-dasharray="0,6.1766" d="    M152.1,24.6c-7.3-5.6-16.9-8-26.3-5.9"/>
		
			<path clip-path="url(#SVGID_4_)" fill="none" stroke="#FFFFFF" stroke-width="2.085" stroke-linecap="round" stroke-linejoin="round" stroke-dasharray="0,6.308" d="    M117.1,22c-12.1,6.8-18.5,21.1-15.4,35"/>
		
			<path clip-path="url(#SVGID_4_)" fill="none" stroke="#FFFFFF" stroke-width="2.085" stroke-linecap="round" stroke-linejoin="round" stroke-dasharray="0,6.31" d="    M105,65.9c6.8,12.3,21,19,34.8,15.9"/>
		
			<path clip-path="url(#SVGID_4_)" fill="none" stroke="#FFFFFF" stroke-width="2.085" stroke-linecap="round" stroke-linejoin="round" stroke-dasharray="0,6.7856" d="    M149.2,78.5c7.8-3.7,13-9.2,14.7-17.5"/>
		
			<path clip-path="url(#SVGID_4_)" fill="none" stroke="#FFFFFF" stroke-width="2.085" stroke-linecap="round" stroke-linejoin="round" d="    M164.4,57.7L164.4,57.7 M142.9,81L142.9,81 M102.5,60.1L102.5,60.1 M122.9,19.5L122.9,19.5 M156.6,28.8L156.6,28.8"/>
		<polygon clip-path="url(#SVGID_4_)" fill="#FFFFFF" points="164.7,53.2 158.3,59.1 170.1,60.1   "/>
		<g clip-path="url(#SVGID_4_)">
			<path fill="#6C6361" d="M17.2,105.1h1l0.4-1.7H19l-0.4,1.7h1.2l-0.1,0.4h-1.2l-0.8,3.9c0,0,0,0,0,0.1c0,0,0,0.1,0,0.1     c0,0.1,0,0.1,0,0.2c0,0.1,0,0.1,0,0.1c0,0.2,0,0.3,0.1,0.4c0.1,0.1,0.3,0.1,0.5,0.1c0.2,0,0.4,0,0.6,0l-0.1,0.4     c-0.1,0-0.2,0-0.3,0c-0.1,0-0.2,0-0.4,0c-0.3,0-0.6-0.1-0.7-0.2c-0.1-0.1-0.2-0.3-0.2-0.6c0-0.1,0-0.2,0-0.3c0-0.1,0-0.2,0.1-0.3     l0.8-3.8h-1L17.2,105.1z"/>
			<path fill="#6C6361" d="M20.2,107.9c0,0.1,0,0.2,0,0.3c0,0.1,0,0.2,0,0.3c0,0.3,0,0.5,0.1,0.7c0.1,0.2,0.2,0.4,0.3,0.6     c0.1,0.2,0.3,0.3,0.5,0.4c0.2,0.1,0.5,0.1,0.8,0.1c0.3,0,0.5,0,0.7-0.1c0.2-0.1,0.4-0.2,0.6-0.4c0.2-0.1,0.3-0.3,0.5-0.5     c0.1-0.2,0.2-0.4,0.3-0.6h0.4c-0.1,0.3-0.2,0.6-0.3,0.8c-0.2,0.2-0.3,0.5-0.5,0.6c-0.2,0.2-0.5,0.3-0.7,0.4s-0.6,0.1-0.9,0.1     c-0.4,0-0.7-0.1-0.9-0.2c-0.3-0.1-0.5-0.3-0.7-0.5c-0.2-0.2-0.3-0.4-0.4-0.7s-0.1-0.5-0.1-0.8c0-0.5,0.1-1,0.2-1.4     c0.1-0.4,0.3-0.8,0.6-1.1c0.3-0.3,0.6-0.6,0.9-0.8c0.4-0.2,0.8-0.3,1.2-0.3c0.3,0,0.6,0.1,0.9,0.2c0.3,0.1,0.5,0.3,0.6,0.4     c0.2,0.2,0.3,0.4,0.4,0.7c0.1,0.3,0.1,0.5,0.1,0.8c0,0.1,0,0.3,0,0.4c0,0.1,0,0.3-0.1,0.4H20.2z M24.3,107.5c0-0.1,0-0.2,0-0.2     c0-0.1,0-0.1,0-0.2c0-0.2,0-0.5-0.1-0.7c-0.1-0.2-0.2-0.4-0.3-0.6c-0.1-0.2-0.3-0.3-0.5-0.4c-0.2-0.1-0.5-0.1-0.8-0.1     c-0.3,0-0.6,0.1-0.9,0.2c-0.3,0.1-0.5,0.3-0.7,0.5c-0.2,0.2-0.4,0.4-0.5,0.7c-0.1,0.3-0.2,0.6-0.3,0.8H24.3z"/>
			<path fill="#6C6361" d="M25.6,108.7c0,0,0,0.1,0,0.1c0,0,0,0.1,0,0.1c0,0.5,0.2,0.9,0.5,1.1c0.3,0.2,0.8,0.3,1.4,0.3     c0.2,0,0.3,0,0.5-0.1c0.2,0,0.3-0.1,0.5-0.2c0.2-0.1,0.3-0.2,0.4-0.4c0.1-0.2,0.1-0.3,0.1-0.5c0-0.3-0.1-0.5-0.2-0.6     c-0.2-0.2-0.3-0.3-0.6-0.4c-0.2-0.1-0.5-0.2-0.7-0.3s-0.5-0.2-0.7-0.3c-0.2-0.1-0.4-0.3-0.6-0.5c-0.1-0.2-0.2-0.4-0.2-0.7     c0-0.3,0.1-0.5,0.2-0.7c0.1-0.2,0.3-0.3,0.5-0.5c0.2-0.1,0.4-0.2,0.6-0.3c0.2-0.1,0.5-0.1,0.7-0.1c0.3,0,0.5,0,0.7,0.1     c0.2,0.1,0.4,0.2,0.6,0.3c0.2,0.1,0.3,0.3,0.4,0.4c0.1,0.2,0.2,0.4,0.2,0.6c0,0.1,0,0.1,0,0.2c0,0.1,0,0.1,0,0.2h-0.4     c0-0.1,0-0.1,0-0.2c0-0.1,0-0.1,0-0.2c0-0.2,0-0.3-0.1-0.5c-0.1-0.1-0.2-0.3-0.3-0.3c-0.1-0.1-0.3-0.2-0.5-0.2     c-0.2,0-0.4-0.1-0.6-0.1c-0.2,0-0.3,0-0.5,0.1c-0.2,0-0.3,0.1-0.5,0.2c-0.2,0.1-0.3,0.2-0.4,0.3c-0.1,0.1-0.2,0.3-0.2,0.5     c0,0.2,0,0.3,0.1,0.5c0.1,0.1,0.2,0.2,0.3,0.3c0.1,0.1,0.3,0.2,0.5,0.2c0.2,0.1,0.4,0.1,0.6,0.2c0.2,0.1,0.4,0.1,0.6,0.2     c0.2,0.1,0.3,0.2,0.5,0.3c0.1,0.1,0.3,0.2,0.3,0.4c0.1,0.2,0.1,0.3,0.1,0.6c0,0.3-0.1,0.5-0.2,0.7c-0.1,0.2-0.3,0.4-0.5,0.5     c-0.2,0.1-0.4,0.2-0.7,0.3c-0.2,0.1-0.5,0.1-0.8,0.1c-0.3,0-0.6,0-0.8-0.1c-0.3-0.1-0.5-0.2-0.7-0.3c-0.2-0.1-0.3-0.3-0.5-0.5     c-0.1-0.2-0.2-0.5-0.2-0.8v-0.2c0,0,0-0.1,0-0.1s0-0.1,0-0.1H25.6z"/>
			<path fill="#6C6361" d="M30.5,105.1h1l0.4-1.7h0.4l-0.4,1.7h1.2l-0.1,0.4h-1.2l-0.8,3.9c0,0,0,0,0,0.1c0,0,0,0.1,0,0.1     c0,0.1,0,0.1,0,0.2c0,0.1,0,0.1,0,0.1c0,0.2,0,0.3,0.1,0.4c0.1,0.1,0.3,0.1,0.5,0.1c0.2,0,0.4,0,0.6,0l-0.1,0.4     c-0.1,0-0.2,0-0.3,0c-0.1,0-0.2,0-0.4,0c-0.3,0-0.6-0.1-0.7-0.2c-0.1-0.1-0.2-0.3-0.2-0.6c0-0.1,0-0.2,0-0.3c0-0.1,0-0.2,0.1-0.3     l0.8-3.8h-1L30.5,105.1z"/>
		</g>
		<g clip-path="url(#SVGID_4_)">
			<path fill="#6C6361" d="M122.4,105.1h0.4l-1.2,5.5h-0.4L122.4,105.1z M122.9,102.9h0.4L123,104h-0.4L122.9,102.9z"/>
			<path fill="#6C6361" d="M123.4,105.1h1l0.4-1.7h0.4l-0.4,1.7h1.2l-0.1,0.4h-1.2l-0.8,3.9c0,0,0,0,0,0.1c0,0,0,0.1,0,0.1     c0,0.1,0,0.1,0,0.2c0,0.1,0,0.1,0,0.1c0,0.2,0,0.3,0.1,0.4c0.1,0.1,0.3,0.1,0.5,0.1c0.2,0,0.4,0,0.6,0l-0.1,0.4     c-0.1,0-0.2,0-0.3,0c-0.1,0-0.2,0-0.4,0c-0.3,0-0.6-0.1-0.7-0.2c-0.1-0.1-0.2-0.3-0.2-0.6c0-0.1,0-0.2,0-0.3c0-0.1,0-0.2,0.1-0.3     l0.8-3.8h-1L123.4,105.1z"/>
			<path fill="#6C6361" d="M126.4,107.9c0,0.1,0,0.2,0,0.3c0,0.1,0,0.2,0,0.3c0,0.3,0,0.5,0.1,0.7c0.1,0.2,0.2,0.4,0.3,0.6     c0.1,0.2,0.3,0.3,0.6,0.4c0.2,0.1,0.5,0.1,0.7,0.1c0.3,0,0.5,0,0.7-0.1c0.2-0.1,0.4-0.2,0.6-0.4c0.2-0.1,0.3-0.3,0.5-0.5     c0.1-0.2,0.2-0.4,0.3-0.6h0.4c-0.1,0.3-0.2,0.6-0.3,0.8c-0.2,0.2-0.3,0.5-0.6,0.6c-0.2,0.2-0.5,0.3-0.7,0.4s-0.6,0.1-0.9,0.1     c-0.4,0-0.7-0.1-0.9-0.2c-0.3-0.1-0.5-0.3-0.7-0.5c-0.2-0.2-0.3-0.4-0.4-0.7c-0.1-0.3-0.1-0.5-0.1-0.8c0-0.5,0.1-1,0.2-1.4     c0.1-0.4,0.3-0.8,0.6-1.1c0.3-0.3,0.6-0.6,0.9-0.8c0.4-0.2,0.8-0.3,1.2-0.3c0.3,0,0.6,0.1,0.9,0.2c0.3,0.1,0.5,0.3,0.6,0.4     c0.2,0.2,0.3,0.4,0.4,0.7s0.1,0.5,0.1,0.8c0,0.1,0,0.3,0,0.4c0,0.1,0,0.3-0.1,0.4H126.4z M130.4,107.5c0-0.1,0-0.2,0-0.2     c0-0.1,0-0.1,0-0.2c0-0.2,0-0.5-0.1-0.7c-0.1-0.2-0.2-0.4-0.3-0.6c-0.1-0.2-0.3-0.3-0.5-0.4c-0.2-0.1-0.5-0.1-0.8-0.1     c-0.3,0-0.6,0.1-0.9,0.2c-0.3,0.1-0.5,0.3-0.7,0.5c-0.2,0.2-0.4,0.4-0.5,0.7c-0.1,0.3-0.2,0.6-0.3,0.8H130.4z"/>
			<path fill="#6C6361" d="M132.4,105.1h0.4l-0.3,1.3h0c0.2-0.4,0.5-0.8,0.8-1c0.3-0.3,0.8-0.4,1.3-0.4c0.1,0,0.1,0,0.2,0     c0.1,0,0.1,0,0.2,0l-0.1,0.4c-0.1,0-0.2,0-0.3,0c-0.4,0-0.7,0.1-1,0.3c-0.3,0.2-0.5,0.5-0.7,0.8c-0.2,0.3-0.3,0.6-0.4,1     c-0.1,0.4-0.2,0.7-0.3,1l-0.5,2.2h-0.4L132.4,105.1z"/>
			<path fill="#6C6361" d="M134.9,106.7c0.1-0.6,0.4-1.1,0.8-1.3c0.4-0.3,0.9-0.4,1.6-0.4c0.1,0,0.3,0,0.5,0c0.2,0,0.4,0.1,0.6,0.2     c0.2,0.1,0.3,0.2,0.5,0.4c0.1,0.2,0.2,0.4,0.2,0.7c0,0.1,0,0.3-0.1,0.5c0,0.2-0.1,0.4-0.1,0.6c0,0.2-0.1,0.4-0.1,0.5     c0,0.2-0.1,0.3-0.1,0.3c0,0.1-0.1,0.3-0.1,0.5c0,0.2-0.1,0.3-0.1,0.5c0,0.2-0.1,0.3-0.1,0.5c0,0.1,0,0.3,0,0.3     c0,0.1,0,0.2,0.1,0.3c0.1,0.1,0.1,0.1,0.2,0.1c0.1,0,0.1,0,0.2,0c0.1,0,0.1,0,0.2,0l-0.1,0.4c-0.1,0-0.2,0-0.2,0s-0.2,0-0.2,0     c-0.2,0-0.3-0.1-0.4-0.2c-0.1-0.1-0.1-0.3-0.1-0.4c0-0.1,0-0.1,0-0.2c0-0.1,0-0.2,0.1-0.2h0c-0.1,0.2-0.2,0.4-0.4,0.5     c-0.2,0.1-0.3,0.3-0.5,0.4c-0.2,0.1-0.4,0.2-0.6,0.2c-0.2,0-0.4,0.1-0.6,0.1c-0.2,0-0.5,0-0.7-0.1c-0.2-0.1-0.4-0.1-0.5-0.3     c-0.2-0.1-0.3-0.3-0.4-0.5c-0.1-0.2-0.1-0.4-0.1-0.7c0-0.3,0.1-0.6,0.2-0.9c0.1-0.2,0.3-0.4,0.5-0.5c0.2-0.1,0.5-0.2,0.8-0.3     c0.3,0,0.6-0.1,0.9-0.1c0.4,0,0.7,0,1-0.1c0.3,0,0.5-0.1,0.6-0.2s0.3-0.2,0.3-0.3c0.1-0.1,0.1-0.3,0.1-0.5c0-0.3-0.1-0.6-0.3-0.8     c-0.2-0.2-0.6-0.3-1.1-0.3c-0.5,0-0.9,0.1-1.2,0.3c-0.3,0.2-0.5,0.6-0.7,1H134.9z M138.4,107.5L138.4,107.5     c-0.1,0.1-0.2,0.1-0.4,0.2c-0.1,0-0.3,0.1-0.5,0.1c-0.2,0-0.3,0.1-0.5,0.1c-0.2,0-0.3,0-0.4,0c-0.3,0-0.5,0-0.8,0     c-0.3,0-0.5,0.1-0.7,0.2c-0.2,0.1-0.4,0.2-0.5,0.4c-0.1,0.2-0.2,0.4-0.2,0.7c0,0.2,0,0.4,0.1,0.5c0.1,0.1,0.2,0.3,0.3,0.4     c0.1,0.1,0.3,0.2,0.4,0.2c0.2,0,0.3,0.1,0.5,0.1c0.3,0,0.6-0.1,0.9-0.2c0.2-0.1,0.5-0.3,0.6-0.5c0.2-0.2,0.3-0.4,0.4-0.7     c0.1-0.3,0.2-0.5,0.3-0.8L138.4,107.5z"/>
			<path fill="#6C6361" d="M139.9,105.1h1l0.4-1.7h0.4l-0.4,1.7h1.2l-0.1,0.4h-1.2l-0.8,3.9c0,0,0,0,0,0.1c0,0,0,0.1,0,0.1     c0,0.1,0,0.1,0,0.2c0,0.1,0,0.1,0,0.1c0,0.2,0,0.3,0.1,0.4c0.1,0.1,0.3,0.1,0.5,0.1c0.2,0,0.4,0,0.6,0l-0.1,0.4     c-0.1,0-0.2,0-0.3,0c-0.1,0-0.2,0-0.4,0c-0.3,0-0.6-0.1-0.7-0.2c-0.1-0.1-0.2-0.3-0.2-0.6c0-0.1,0-0.2,0-0.3c0-0.1,0-0.2,0.1-0.3     l0.8-3.8h-1L139.9,105.1z"/>
			<path fill="#6C6361" d="M142.9,107.9c0,0.1,0,0.2,0,0.3c0,0.1,0,0.2,0,0.3c0,0.3,0,0.5,0.1,0.7c0.1,0.2,0.2,0.4,0.3,0.6     c0.2,0.2,0.3,0.3,0.6,0.4c0.2,0.1,0.5,0.1,0.8,0.1c0.3,0,0.5,0,0.7-0.1c0.2-0.1,0.4-0.2,0.6-0.4c0.2-0.1,0.3-0.3,0.5-0.5     c0.1-0.2,0.2-0.4,0.3-0.6h0.4c-0.1,0.3-0.2,0.6-0.3,0.8c-0.2,0.2-0.3,0.5-0.5,0.6c-0.2,0.2-0.5,0.3-0.7,0.4     c-0.3,0.1-0.6,0.1-0.9,0.1c-0.4,0-0.7-0.1-0.9-0.2c-0.3-0.1-0.5-0.3-0.7-0.5c-0.2-0.2-0.3-0.4-0.4-0.7c-0.1-0.3-0.1-0.5-0.1-0.8     c0-0.5,0.1-1,0.2-1.4c0.1-0.4,0.3-0.8,0.6-1.1s0.6-0.6,0.9-0.8c0.4-0.2,0.8-0.3,1.2-0.3c0.3,0,0.6,0.1,0.9,0.2     c0.2,0.1,0.5,0.3,0.6,0.4c0.2,0.2,0.3,0.4,0.4,0.7c0.1,0.3,0.1,0.5,0.1,0.8c0,0.1,0,0.3,0,0.4c0,0.1,0,0.3-0.1,0.4H142.9z      M147,107.5c0-0.1,0-0.2,0-0.2c0-0.1,0-0.1,0-0.2c0-0.2,0-0.5-0.1-0.7c-0.1-0.2-0.2-0.4-0.3-0.6c-0.1-0.2-0.3-0.3-0.5-0.4     c-0.2-0.1-0.5-0.1-0.8-0.1c-0.3,0-0.6,0.1-0.9,0.2c-0.3,0.1-0.5,0.3-0.7,0.5s-0.4,0.4-0.5,0.7c-0.1,0.3-0.2,0.6-0.3,0.8H147z"/>
		</g>
		<g clip-path="url(#SVGID_4_)">
			<path fill="#6C6361" d="M227.9,105.1h0.5l0.8,5.1h0l2.8-5.1h0.5l-3.2,5.5h-0.5L227.9,105.1z"/>
			<path fill="#6C6361" d="M232.9,106.7c0.1-0.6,0.4-1.1,0.8-1.3c0.4-0.3,0.9-0.4,1.6-0.4c0.1,0,0.3,0,0.5,0c0.2,0,0.4,0.1,0.6,0.2     c0.2,0.1,0.3,0.2,0.5,0.4c0.1,0.2,0.2,0.4,0.2,0.7c0,0.1,0,0.3-0.1,0.5c0,0.2-0.1,0.4-0.1,0.6c0,0.2-0.1,0.4-0.1,0.5     c0,0.2-0.1,0.3-0.1,0.3c0,0.1-0.1,0.3-0.1,0.5c0,0.2-0.1,0.3-0.1,0.5c0,0.2-0.1,0.3-0.1,0.5c0,0.1,0,0.3,0,0.3     c0,0.1,0,0.2,0.1,0.3c0.1,0.1,0.1,0.1,0.2,0.1c0.1,0,0.1,0,0.2,0c0.1,0,0.1,0,0.2,0l-0.1,0.4c-0.1,0-0.2,0-0.2,0     c-0.1,0-0.2,0-0.2,0c-0.2,0-0.3-0.1-0.4-0.2c-0.1-0.1-0.1-0.3-0.1-0.4c0-0.1,0-0.1,0-0.2c0-0.1,0-0.2,0.1-0.2h0     c-0.1,0.2-0.2,0.4-0.4,0.5c-0.2,0.1-0.3,0.3-0.5,0.4s-0.4,0.2-0.6,0.2c-0.2,0-0.4,0.1-0.6,0.1c-0.2,0-0.5,0-0.7-0.1     c-0.2-0.1-0.4-0.1-0.5-0.3c-0.2-0.1-0.3-0.3-0.4-0.5c-0.1-0.2-0.1-0.4-0.1-0.7c0-0.3,0.1-0.6,0.2-0.9c0.1-0.2,0.3-0.4,0.5-0.5     c0.2-0.1,0.5-0.2,0.8-0.3c0.3,0,0.6-0.1,0.9-0.1c0.4,0,0.7,0,1-0.1c0.3,0,0.5-0.1,0.6-0.2c0.2-0.1,0.3-0.2,0.3-0.3     c0.1-0.1,0.1-0.3,0.1-0.5c0-0.3-0.1-0.6-0.3-0.8c-0.2-0.2-0.6-0.3-1.1-0.3c-0.5,0-0.9,0.1-1.2,0.3c-0.3,0.2-0.5,0.6-0.7,1H232.9z      M236.3,107.5L236.3,107.5c-0.1,0.1-0.2,0.1-0.4,0.2c-0.1,0-0.3,0.1-0.5,0.1c-0.2,0-0.3,0.1-0.5,0.1c-0.2,0-0.3,0-0.4,0     c-0.3,0-0.5,0-0.8,0s-0.5,0.1-0.7,0.2c-0.2,0.1-0.4,0.2-0.5,0.4c-0.1,0.2-0.2,0.4-0.2,0.7c0,0.2,0,0.4,0.1,0.5     c0.1,0.1,0.2,0.3,0.3,0.4c0.1,0.1,0.3,0.2,0.5,0.2c0.2,0,0.3,0.1,0.5,0.1c0.3,0,0.6-0.1,0.9-0.2c0.2-0.1,0.5-0.3,0.6-0.5     c0.2-0.2,0.3-0.4,0.4-0.7c0.1-0.3,0.2-0.5,0.3-0.8L236.3,107.5z"/>
			<path fill="#6C6361" d="M239.2,102.9h0.4l-1.6,7.7h-0.4L239.2,102.9z"/>
			<path fill="#6C6361" d="M240.5,105.1h0.4l-1.2,5.5h-0.4L240.5,105.1z M241,102.9h0.4l-0.2,1.1h-0.4L241,102.9z"/>
			<path fill="#6C6361" d="M247.3,102.9l-1.6,7.7h-0.4l0.3-1.2l0,0c-0.2,0.4-0.5,0.8-0.8,1c-0.4,0.2-0.8,0.4-1.3,0.4     c-0.3,0-0.7-0.1-0.9-0.2c-0.3-0.1-0.5-0.3-0.7-0.5c-0.2-0.2-0.3-0.4-0.4-0.7c-0.1-0.3-0.1-0.5-0.1-0.8c0-0.4,0.1-0.8,0.2-1.3     c0.1-0.4,0.3-0.8,0.6-1.2s0.6-0.6,0.9-0.9c0.4-0.2,0.8-0.3,1.3-0.3c0.5,0,0.9,0.1,1.2,0.4c0.3,0.3,0.5,0.6,0.6,1.1h0l0.7-3.5     H247.3z M243.6,110.4c0.4,0,0.7-0.1,1.1-0.3c0.3-0.2,0.6-0.5,0.8-0.9c0.2-0.3,0.4-0.7,0.5-1.1c0.1-0.4,0.2-0.8,0.2-1.1     c0-0.2,0-0.4-0.1-0.6c-0.1-0.2-0.2-0.4-0.3-0.5c-0.1-0.2-0.3-0.3-0.5-0.4c-0.2-0.1-0.4-0.1-0.6-0.1c-0.4,0-0.8,0.1-1.2,0.3     c-0.3,0.2-0.6,0.5-0.8,0.8c-0.2,0.3-0.4,0.7-0.5,1c-0.1,0.4-0.2,0.7-0.2,1.1c0,0.2,0,0.5,0.1,0.7c0.1,0.2,0.1,0.4,0.3,0.6     c0.1,0.2,0.3,0.3,0.5,0.4C242.9,110.3,243.2,110.4,243.6,110.4z"/>
			<path fill="#6C6361" d="M247.8,106.7c0.1-0.6,0.4-1.1,0.8-1.3c0.4-0.3,0.9-0.4,1.6-0.4c0.1,0,0.3,0,0.5,0c0.2,0,0.4,0.1,0.6,0.2     c0.2,0.1,0.3,0.2,0.5,0.4c0.1,0.2,0.2,0.4,0.2,0.7c0,0.1,0,0.3-0.1,0.5c0,0.2-0.1,0.4-0.1,0.6c0,0.2-0.1,0.4-0.1,0.5     c0,0.2-0.1,0.3-0.1,0.3c0,0.1-0.1,0.3-0.1,0.5c0,0.2-0.1,0.3-0.1,0.5c0,0.2-0.1,0.3-0.1,0.5c0,0.1,0,0.3,0,0.3     c0,0.1,0,0.2,0.1,0.3c0,0.1,0.1,0.1,0.2,0.1c0.1,0,0.1,0,0.2,0c0.1,0,0.1,0,0.2,0l-0.1,0.4c-0.1,0-0.2,0-0.2,0     c-0.1,0-0.2,0-0.2,0c-0.2,0-0.3-0.1-0.4-0.2c-0.1-0.1-0.1-0.3-0.1-0.4c0-0.1,0-0.1,0-0.2c0-0.1,0-0.2,0.1-0.2h0     c-0.1,0.2-0.2,0.4-0.4,0.5c-0.2,0.1-0.3,0.3-0.5,0.4c-0.2,0.1-0.4,0.2-0.6,0.2c-0.2,0-0.4,0.1-0.6,0.1c-0.2,0-0.5,0-0.7-0.1     c-0.2-0.1-0.4-0.1-0.5-0.3c-0.2-0.1-0.3-0.3-0.4-0.5c-0.1-0.2-0.1-0.4-0.1-0.7c0-0.3,0.1-0.6,0.2-0.9c0.1-0.2,0.3-0.4,0.5-0.5     c0.2-0.1,0.5-0.2,0.8-0.3c0.3,0,0.6-0.1,0.9-0.1c0.4,0,0.7,0,1-0.1s0.5-0.1,0.6-0.2c0.2-0.1,0.3-0.2,0.3-0.3     c0.1-0.1,0.1-0.3,0.1-0.5c0-0.3-0.1-0.6-0.3-0.8c-0.2-0.2-0.6-0.3-1.1-0.3c-0.5,0-0.9,0.1-1.2,0.3c-0.3,0.2-0.5,0.6-0.7,1H247.8z      M251.3,107.5L251.3,107.5c-0.1,0.1-0.2,0.1-0.4,0.2c-0.1,0-0.3,0.1-0.5,0.1c-0.2,0-0.3,0.1-0.5,0.1c-0.2,0-0.3,0-0.4,0     c-0.3,0-0.5,0-0.8,0s-0.5,0.1-0.7,0.2c-0.2,0.1-0.4,0.2-0.5,0.4c-0.1,0.2-0.2,0.4-0.2,0.7c0,0.2,0,0.4,0.1,0.5     c0.1,0.1,0.2,0.3,0.3,0.4c0.1,0.1,0.3,0.2,0.5,0.2c0.2,0,0.3,0.1,0.5,0.1c0.3,0,0.6-0.1,0.9-0.2c0.2-0.1,0.5-0.3,0.6-0.5     c0.2-0.2,0.3-0.4,0.4-0.7c0.1-0.3,0.2-0.5,0.3-0.8L251.3,107.5z"/>
			<path fill="#6C6361" d="M252.9,105.1h1l0.4-1.7h0.4l-0.4,1.7h1.2l-0.1,0.4h-1.2l-0.8,3.9c0,0,0,0,0,0.1c0,0,0,0.1,0,0.1     c0,0.1,0,0.1,0,0.2s0,0.1,0,0.1c0,0.2,0,0.3,0.1,0.4c0.1,0.1,0.3,0.1,0.5,0.1c0.2,0,0.4,0,0.6,0l-0.1,0.4c-0.1,0-0.2,0-0.3,0     c-0.1,0-0.2,0-0.4,0c-0.3,0-0.6-0.1-0.7-0.2c-0.1-0.1-0.2-0.3-0.2-0.6c0-0.1,0-0.2,0-0.3c0-0.1,0-0.2,0.1-0.3l0.8-3.8h-1     L252.9,105.1z"/>
			<path fill="#6C6361" d="M255.9,107.9c0,0.1,0,0.2,0,0.3c0,0.1,0,0.2,0,0.3c0,0.3,0,0.5,0.1,0.7c0.1,0.2,0.2,0.4,0.3,0.6     c0.1,0.2,0.3,0.3,0.6,0.4c0.2,0.1,0.5,0.1,0.7,0.1c0.3,0,0.5,0,0.7-0.1c0.2-0.1,0.4-0.2,0.6-0.4c0.2-0.1,0.3-0.3,0.5-0.5     c0.1-0.2,0.2-0.4,0.3-0.6h0.4c-0.1,0.3-0.2,0.6-0.3,0.8c-0.2,0.2-0.3,0.5-0.6,0.6c-0.2,0.2-0.5,0.3-0.7,0.4s-0.6,0.1-0.9,0.1     c-0.4,0-0.7-0.1-0.9-0.2c-0.3-0.1-0.5-0.3-0.7-0.5c-0.2-0.2-0.3-0.4-0.4-0.7c-0.1-0.3-0.1-0.5-0.1-0.8c0-0.5,0.1-1,0.2-1.4     c0.1-0.4,0.3-0.8,0.6-1.1c0.3-0.3,0.6-0.6,0.9-0.8c0.4-0.2,0.8-0.3,1.2-0.3c0.3,0,0.6,0.1,0.9,0.2c0.2,0.1,0.5,0.3,0.6,0.4     c0.2,0.2,0.3,0.4,0.4,0.7s0.1,0.5,0.1,0.8c0,0.1,0,0.3,0,0.4c0,0.1,0,0.3,0,0.4H255.9z M259.9,107.5c0-0.1,0-0.2,0-0.2     c0-0.1,0-0.1,0-0.2c0-0.2,0-0.5-0.1-0.7c-0.1-0.2-0.2-0.4-0.3-0.6c-0.1-0.2-0.3-0.3-0.5-0.4c-0.2-0.1-0.5-0.1-0.8-0.1     c-0.3,0-0.6,0.1-0.9,0.2c-0.3,0.1-0.5,0.3-0.7,0.5s-0.4,0.4-0.5,0.7c-0.1,0.3-0.2,0.6-0.3,0.8H259.9z"/>
		</g>
	</g>
</g>
</svg>
