<?xml version="1.0" encoding="utf-8"?>
<!-- Generator: Adobe Illustrator 16.0.4, SVG Export Plug-In . SVG Version: 6.00 Build 0)  -->
<!DOCTYPE svg PUBLIC "-//W3C//DTD SVG 1.1//EN" "http://www.w3.org/Graphics/SVG/1.1/DTD/svg11.dtd">
<svg xmlns="http://www.w3.org/2000/svg" xmlns:xlink="http://www.w3.org/1999/xlink" version="1.1" id="Layer_1" x="0px" y="0px" width="48.6px" height="48.5px" viewBox="0 0 48.6 48.5" xml:space="preserve">
<g>
	<defs>
		<rect id="SVGID_1_" x="0" width="48.6" height="48.5"/>
	</defs>
	<clipPath id="SVGID_2_">
		<use xlink:href="#SVGID_1_"/>
	</clipPath>
	<path clip-path="url(#SVGID_2_)" d="M24.3,47.8c13,0,23.6-10.5,23.6-23.6c0-13-10.6-23.6-23.6-23.6c-13,0-23.6,10.5-23.6,23.6   C0.7,37.3,11.3,47.8,24.3,47.8"/>
	<ellipse clip-path="url(#SVGID_2_)" fill="none" stroke="#6C6361" stroke-width="1.417" cx="24.3" cy="24.3" rx="23.6" ry="23.6"/>
	<path clip-path="url(#SVGID_2_)" fill="#FFFFFF" d="M26.6,24.4c2-0.9,3.4-2.9,3.4-5.2c0-3.2-2.6-5.7-5.7-5.7   c-3.2,0-5.7,2.6-5.7,5.7c0,2.3,1.4,4.3,3.3,5.2c-7.6,1.5-6.8,10.7-6.8,10.7h18.4C33.5,35.1,34,26.1,26.6,24.4"/>
</g>
</svg>
