<?xml version="1.0" encoding="utf-8"?>
<!-- Generator: Adobe Illustrator 16.0.4, SVG Export Plug-In . SVG Version: 6.00 Build 0)  -->
<!DOCTYPE svg PUBLIC "-//W3C//DTD SVG 1.1//EN" "http://www.w3.org/Graphics/SVG/1.1/DTD/svg11.dtd">
<svg xmlns="http://www.w3.org/2000/svg" xmlns:xlink="http://www.w3.org/1999/xlink" version="1.1" id="Layer_1" x="0px" y="0px" width="160.6px" height="179.6px" viewBox="0 0 160.6 179.6" xml:space="preserve">
<g>
	
		<path fill="none" stroke="#E31D3A" stroke-width="1.764" stroke-linecap="round" stroke-linejoin="round" stroke-miterlimit="10" d="   M136.5,49.8v-7.3 M130,46.2h13 M108.2,65.8v-7.3 M101.7,62.1h13 M79.9,81.7v-7.3 M73.5,78h13 M108.4,33.9v-7.3 M101.9,30.2h13    M80.1,49.8v-7.3 M73.6,46.2h13 M51.8,65.7v-7.3 M45.4,62.1h13 M80.3,18v-7.3 M73.8,14.3h13 M52,33.9v-7.3 M45.6,30.2h13    M23.8,49.8v-7.3 M17.3,46.2h13 M95.4,162.1l-6.6-3.6 M95.4,154.8l-6.6,10.9 M123.6,146l-6.6-3.6 M123.6,138.8l-6.6,10.9    M151.9,129.9l-6.6-3.6 M151.9,122.7l-6.6,10.9 M95.4,131.5l-6.6-3.6 M95.4,124.2l-6.6,10.9 M123.6,115.4l-6.6-3.6 M123.6,108.2   L117,119 M151.9,99.4l-6.6-3.6 M151.9,92.1l-6.6,10.9 M95.4,100.9l-6.6-3.6 M95.4,93.6l-6.6,10.9 M123.6,84.8l-6.6-3.6 M123.6,77.6   L117,88.4 M151.9,68.8l-6.6-3.6 M151.9,61.5l-6.6,10.9 M65.3,161.5l6.6-3.6 M65.3,154.3l6.6,10.9 M37,145.5l6.6-3.6 M37,138.2   l6.6,10.9 M8.7,129.4l6.6-3.6 M8.7,122.2l6.6,10.9 M65.3,130.9l6.6-3.6 M65.3,123.7l6.6,10.9 M37,114.9l6.6-3.6 M37,107.6l6.6,10.9    M8.7,98.8l6.6-3.6 M8.7,91.6l6.6,10.9 M65.3,100.3l6.6-3.6 M65.3,93.1l6.6,10.9 M37,84.3l6.6-3.6 M37,77.1l6.6,10.9 M8.7,68.2   l6.6-3.6 M8.7,61l6.6,10.9"/>
	<g>
		<defs>
			<rect id="SVGID_1_" x="0" width="160.6" height="179.6"/>
		</defs>
		<clipPath id="SVGID_2_">
			<use xlink:href="#SVGID_1_"/>
		</clipPath>
		<path clip-path="url(#SVGID_2_)" d="M2.7,44.2c-0.5,0-0.9,0.1-1.4,0.4C0.5,45,0,45.9,0,46.9V133c0,1,0.5,1.9,1.4,2.3l77.5,43.9    c0.4,0.2,0.9,0.3,1.3,0.3c0.5,0,0.9-0.1,1.4-0.4c0.8-0.5,1.3-1.4,1.3-2.3V90.7c0-1-0.5-1.9-1.4-2.3L4,44.5    C3.6,44.3,3.2,44.2,2.7,44.2 M2.7,46.9l77.5,43.9v86.2L2.7,133V46.9z"/>
		<path clip-path="url(#SVGID_2_)" d="M157.9,44.2c-0.5,0-0.9,0.1-1.3,0.3L78.9,88.4c-0.8,0.5-1.4,1.4-1.4,2.4v86.2    c0,1,0.5,1.8,1.3,2.3c0.4,0.2,0.9,0.4,1.4,0.4c0.5,0,0.9-0.1,1.3-0.3l77.7-43.9c0.8-0.5,1.4-1.4,1.4-2.4V46.9c0-1-0.5-1.8-1.3-2.3    C158.9,44.3,158.4,44.2,157.9,44.2 M157.9,46.9V133l-77.7,43.9V90.7L157.9,46.9z"/>
		<path clip-path="url(#SVGID_2_)" d="M80.2,0c-0.5,0-0.9,0.1-1.3,0.4L1.4,44.5C0.5,45,0,45.9,0,46.9c0,1,0.5,1.9,1.4,2.3l77.5,43.9    c0.4,0.2,0.9,0.3,1.3,0.3c0.5,0,0.9-0.1,1.3-0.3l77.7-43.9c0.8-0.5,1.4-1.4,1.4-2.3c0-1-0.5-1.9-1.4-2.4L81.6,0.4    C81.1,0.1,80.7,0,80.2,0 M80.2,2.7l77.7,44.2L80.2,90.7L2.7,46.9L80.2,2.7z"/>
	</g>
</g>
</svg>
