<?xml version="1.0" encoding="utf-8"?>
<!-- Generator: Adobe Illustrator 16.0.4, SVG Export Plug-In . SVG Version: 6.00 Build 0)  -->
<!DOCTYPE svg PUBLIC "-//W3C//DTD SVG 1.1//EN" "http://www.w3.org/Graphics/SVG/1.1/DTD/svg11.dtd">
<svg xmlns="http://www.w3.org/2000/svg" xmlns:xlink="http://www.w3.org/1999/xlink" version="1.1" id="Layer_1" x="0px" y="0px" width="978px" height="439px" viewBox="0 0 978 439" xml:space="preserve">
<g>
	<g>
		<defs>
			<rect id="SVGID_1_" x="0" width="978" height="439"/>
		</defs>
		<clipPath id="SVGID_2_">
			<use xlink:href="#SVGID_1_"/>
		</clipPath>
		
			<rect x="14.7" y="13.7" clip-path="url(#SVGID_2_)" fill="none" stroke="#000000" stroke-width="11.339" width="948.7" height="418.7"/>
		<path clip-path="url(#SVGID_2_)" fill="#6C6361" d="M432.2,247.3c18.2,0,32.9-14.7,32.9-32.9c0-18.2-14.7-32.9-32.9-32.9    s-32.9,14.7-32.9,32.9C399.3,232.6,414.1,247.3,432.2,247.3"/>
		<path clip-path="url(#SVGID_2_)" d="M432.2,230.8c9.1,0,16.4-7.4,16.4-16.4c0-9.1-7.4-16.4-16.4-16.4s-16.4,7.4-16.4,16.4    C415.8,223.5,423.1,230.8,432.2,230.8"/>
		<path clip-path="url(#SVGID_2_)" fill="none" stroke="#000000" stroke-width="2.119" stroke-dasharray="6.871,6.871" d="    M441.9,229c2.9-1.9,5.1-4.6,6.5-7.8"/>
		<path clip-path="url(#SVGID_2_)" fill="none" stroke="#000000" stroke-width="2.119" stroke-dasharray="6.871,6.871" d="    M446.8,204.7c-1.9-2.9-4.6-5.1-7.9-6.4"/>
		<path clip-path="url(#SVGID_2_)" fill="none" stroke="#000000" stroke-width="2.119" stroke-dasharray="6.871,6.871" d="    M422.5,199.9c-2.9,1.9-5.1,4.6-6.5,7.8"/>
		<path clip-path="url(#SVGID_2_)" fill="none" stroke="#000000" stroke-width="2.119" stroke-dasharray="6.871,6.871" d="    M417.7,224.1c1.9,2.9,4.6,5.1,7.9,6.4"/>
		<path clip-path="url(#SVGID_2_)" fill="none" stroke="#000000" stroke-width="2.119" d="M428.8,231.6c1.1,0.2,2.2,0.3,3.4,0.3    s2.3-0.1,3.4-0.3 M415.1,211c-0.2,1.1-0.3,2.2-0.3,3.4s0.1,2.3,0.3,3.4 M435.6,197.3c-1.1-0.2-2.2-0.3-3.4-0.3s-2.3,0.1-3.4,0.3     M449.4,217.8c0.2-1.1,0.3-2.2,0.3-3.4s-0.1-2.3-0.3-3.4"/>
		<path clip-path="url(#SVGID_2_)" fill="#6C6361" d="M97.9,265.8c18.2,0,32.9-14.7,32.9-32.9c0-18.2-14.7-32.9-32.9-32.9    S65,214.8,65,232.9C65,251.1,79.7,265.8,97.9,265.8"/>
	</g>
	
		<line fill="none" stroke="#000000" stroke-width="2.119" stroke-dasharray="9.233,9.233" x1="97.9" y1="227.2" x2="97.9" y2="144.1"/>
	<g>
		<defs>
			<rect id="SVGID_3_" x="0" width="978" height="439"/>
		</defs>
		<clipPath id="SVGID_4_">
			<use xlink:href="#SVGID_3_"/>
		</clipPath>
		<circle clip-path="url(#SVGID_4_)" fill="none" stroke="#000000" stroke-width="2.119" cx="97.9" cy="231.4" r="4.2"/>
		<polygon clip-path="url(#SVGID_4_)" points="97.9,139.5 91.9,146 103.9,146   "/>
		<path clip-path="url(#SVGID_4_)" fill="#6C6361" d="M263.4,247.6c18.3,0,33-14.7,33-32.8c0-18.1-14.8-32.8-33-32.8    s-33,14.7-33,32.8C230.3,232.9,245.1,247.6,263.4,247.6"/>
		<path clip-path="url(#SVGID_4_)" fill="none" stroke="#000000" stroke-width="2.119" stroke-dasharray="9.493,9.493" d="    M288.7,172.6c-9.3-5.8-20.5-8.4-31.8-7.1"/>
		<path clip-path="url(#SVGID_4_)" fill="none" stroke="#000000" stroke-width="2.119" stroke-dasharray="7.726,7.726" d="    M237.1,172.4c-16.8,10.3-26,29.9-22.8,49.7"/>
		<path clip-path="url(#SVGID_4_)" fill="none" stroke="#000000" stroke-width="2.119" stroke-dasharray="7.745,7.745" d="M221,240    c10.3,16.9,30,26.1,49.7,23"/>
		<path clip-path="url(#SVGID_4_)" fill="none" stroke="#000000" stroke-width="2.119" stroke-dasharray="8.965,8.965" d="    M290.6,255.9c9.6-5.6,16.3-13.4,19.4-23.7"/>
		<path clip-path="url(#SVGID_4_)" fill="none" stroke="#000000" stroke-width="2.119" d="M311,227.9c0.3-1.4,0.5-2.9,0.6-4.4     M274.6,262.3c1.2-0.3,2.5-0.6,3.7-1c1.4-0.5,2.9-1,4.2-1.5 M215.1,225.8c0.3,1.2,0.7,2.5,1.1,3.7c0.4,1.2,0.9,2.4,1.3,3.6     M252.2,166.3c-1.5,0.3-3.1,0.8-4.6,1.2c-1.2,0.4-2.4,0.8-3.6,1.3 M299.6,181.7c-1.1-1.2-2.2-2.3-3.3-3.4"/>
		<polygon clip-path="url(#SVGID_4_)" points="312,218.9 305.5,224.8 317.5,225.9   "/>
	</g>
	<text transform="matrix(1 0 0 1 86.7495 303.4697)"><tspan x="0" y="0" font-family="'HelveticaNeue-ThinItalic'" font-size="15">t</tspan><tspan x="3.7" y="0" font-family="'HelveticaNeue-ThinItalic'" font-size="15">est</tspan></text>
	<text transform="matrix(1 0 0 1 246.6045 303.4697)"><tspan x="0" y="0" font-family="'HelveticaNeue-ThinItalic'" font-size="15">i</tspan><tspan x="2.5" y="0" font-family="'HelveticaNeue-ThinItalic'" font-size="15">t</tspan><tspan x="6.2" y="0" font-family="'HelveticaNeue-ThinItalic'" font-size="15">e</tspan><tspan x="14" y="0" font-family="'HelveticaNeue-ThinItalic'" font-size="15">r</tspan><tspan x="18" y="0" font-family="'HelveticaNeue-ThinItalic'" font-size="15">a</tspan><tspan x="25.5" y="0" font-family="'HelveticaNeue-ThinItalic'" font-size="15">t</tspan><tspan x="29.2" y="0" font-family="'HelveticaNeue-ThinItalic'" font-size="15">e</tspan></text>
	<text transform="matrix(1 0 0 1 409.1294 303.4697)"><tspan x="0" y="0" font-family="'HelveticaNeue-ThinItalic'" font-size="15">valida</tspan><tspan x="34.7" y="0" font-family="'HelveticaNeue-ThinItalic'" font-size="15">t</tspan><tspan x="38.4" y="0" font-family="'HelveticaNeue-ThinItalic'" font-size="15">e</tspan></text>
	<text transform="matrix(1 0 0 1 585.8354 238.2148)"><tspan x="0" y="0" font-family="'HelveticaNeue-Light'" font-size="14">UC</tspan><tspan x="19.4" y="0" font-family="'HelveticaNeue-Light'" font-size="14">L</tspan><tspan x="25.6" y="0" font-family="'HelveticaNeue-Light'" font-size="14">’</tspan><tspan x="28" y="0" font-family="'HelveticaNeue-Light'" font-size="14">s</tspan><tspan x="34.7" y="0" font-family="'HelveticaNeue-Light'" font-size="14"> </tspan><tspan x="41" y="0" font-family="'HelveticaNeue-Light'" font-size="14">Digital</tspan><tspan x="77.5" y="0" font-family="'HelveticaNeue-Light'" font-size="14"> </tspan><tspan x="83.8" y="0" font-family="'HelveticaNeue-Light'" font-size="14">Business</tspan><tspan x="138.2" y="0" font-family="'HelveticaNeue-Light'" font-size="14"> </tspan><tspan x="144.5" y="0" font-family="'HelveticaNeue-Light'" font-size="14">Labs</tspan><tspan x="174.1" y="0" font-family="'HelveticaNeue-Light'" font-size="14"> </tspan><tspan x="180.3" y="0" font-family="'HelveticaNeue-Light'" font-size="14">helps</tspan><tspan x="212.5" y="0" font-family="'HelveticaNeue-Light'" font-size="14"> </tspan><tspan x="218.7" y="0" font-family="'HelveticaNeue-Light'" font-size="14">London</tspan><tspan x="264.9" y="0" font-family="'HelveticaNeue-Light'" font-size="14">’</tspan><tspan x="267.2" y="0" font-family="'HelveticaNeue-Light'" font-size="14">s </tspan></text>
	<text transform="matrix(1 0 0 1 585.8354 255.0146)"><tspan x="0" y="0" font-family="'HelveticaNeue-Light'" font-size="14">ent</tspan><tspan x="18.9" y="0" font-family="'HelveticaNeue-Light'" font-size="14">r</tspan><tspan x="23.1" y="0" font-family="'HelveticaNeue-Light'" font-size="14">ep</tspan><tspan x="38.4" y="0" font-family="'HelveticaNeue-Light'" font-size="14">r</tspan><tspan x="42.6" y="0" font-family="'HelveticaNeue-Light'" font-size="14">eneurs</tspan><tspan x="83.3" y="0" font-family="'HelveticaNeue-Light'" font-size="14"> </tspan><tspan x="86.8" y="0" font-family="'HelveticaNeue-Light'" font-size="14">to</tspan><tspan x="98.7" y="0" font-family="'HelveticaNeue-Light'" font-size="14"> </tspan><tspan x="102.3" y="0" font-family="'HelveticaNeue-Light'" font-size="14">test,</tspan><tspan x="128.5" y="0" font-family="'HelveticaNeue-Light'" font-size="14"> </tspan><tspan x="132" y="0" font-family="'HelveticaNeue-Light'" font-size="14">iterate</tspan><tspan x="169.1" y="0" font-family="'HelveticaNeue-Light'" font-size="14"> </tspan><tspan x="172.6" y="0" font-family="'HelveticaNeue-Light'" font-size="14">and</tspan><tspan x="195.4" y="0" font-family="'HelveticaNeue-Light'" font-size="14"> </tspan><tspan x="199" y="0" font-family="'HelveticaNeue-Light'" font-size="14">validate</tspan><tspan x="244.6" y="0" font-family="'HelveticaNeue-Light'" font-size="14"> </tspan><tspan x="248.1" y="0" font-family="'HelveticaNeue-Light'" font-size="14">their </tspan></text>
	<text transform="matrix(1 0 0 1 585.8354 271.8145)"><tspan x="0" y="0" font-family="'HelveticaNeue-Light'" font-size="14">digital</tspan><tspan x="35" y="0" font-family="'HelveticaNeue-Light'" font-size="14"> </tspan><tspan x="40.4" y="0" font-family="'HelveticaNeue-Light'" font-size="14">business,</tspan><tspan x="97.4" y="0" font-family="'HelveticaNeue-Light'" font-size="14"> </tspan><tspan x="102.9" y="0" font-family="'HelveticaNeue-Light'" font-size="14">while</tspan><tspan x="133.2" y="0" font-family="'HelveticaNeue-Light'" font-size="14"> </tspan><tspan x="138.6" y="0" font-family="'HelveticaNeue-Light'" font-size="14">accessing</tspan><tspan x="199" y="0" font-family="'HelveticaNeue-Light'" font-size="14"> </tspan><tspan x="204.5" y="0" font-family="'HelveticaNeue-Light'" font-size="14">the</tspan><tspan x="223.4" y="0" font-family="'HelveticaNeue-Light'" font-size="14"> </tspan><tspan x="228.8" y="0" font-family="'HelveticaNeue-Light'" font-size="14">globally </tspan></text>
	<text transform="matrix(1 0 0 1 585.8354 288.6143)"><tspan x="0" y="0" font-family="'HelveticaNeue-Light'" font-size="14">r</tspan><tspan x="4.2" y="0" font-family="'HelveticaNeue-Light'" font-size="14">enowned expertise of UCL.</tspan></text>
	<text transform="matrix(1 0 0 1 587.2261 196.8291)"><tspan x="0" y="0" font-family="'Helvetica'" font-size="48">What </tspan><tspan x="125.4" y="0" font-family="'Helvetica'" font-size="48">W</tspan><tspan x="169.9" y="0" font-family="'Helvetica'" font-size="48">e Do</tspan></text>
</g>
</svg>
