<?xml version="1.0" encoding="utf-8"?>
<!-- Generator: Adobe Illustrator 16.0.4, SVG Export Plug-In . SVG Version: 6.00 Build 0)  -->
<!DOCTYPE svg PUBLIC "-//W3C//DTD SVG 1.1//EN" "http://www.w3.org/Graphics/SVG/1.1/DTD/svg11.dtd">
<svg version="1.1"
	 id="Layer_1" xmlns:dc="http://purl.org/dc/elements/1.1/" xmlns:svg="http://www.w3.org/2000/svg" xmlns:cc="http://creativecommons.org/ns#" xmlns:rdf="http://www.w3.org/1999/02/22-rdf-syntax-ns#"
	 xmlns="http://www.w3.org/2000/svg" xmlns:xlink="http://www.w3.org/1999/xlink" x="0px" y="0px" width="213.628px"
	 height="73.941px" viewBox="0 0 213.628 73.941" enable-background="new 0 0 213.628 73.941" xml:space="preserve">
<g>
	<g enable-background="new    ">
		<path fill="#4A4A4A" d="M98.028,38.801c1.564,0,3.021,0.25,4.369,0.748s2.516,1.246,3.502,2.244
			c0.986,0.998,1.756,2.244,2.312,3.74c0.555,1.496,0.833,3.252,0.833,5.27c0,1.768-0.227,3.4-0.68,4.896
			c-0.454,1.496-1.139,2.787-2.057,3.875s-2.063,1.943-3.434,2.568c-1.372,0.623-2.987,0.934-4.845,0.934H87.557V38.801H98.028z
			 M97.655,58.588c0.771,0,1.519-0.123,2.244-0.373s1.371-0.664,1.938-1.24c0.566-0.578,1.02-1.332,1.36-2.262
			c0.34-0.93,0.51-2.062,0.51-3.4c0-1.225-0.119-2.328-0.357-3.313c-0.238-0.985-0.629-1.83-1.173-2.533
			c-0.544-0.702-1.264-1.239-2.159-1.614c-0.896-0.373-2.001-0.562-3.315-0.562h-3.808v15.299L97.655,58.588L97.655,58.588z"/>
		<path fill="#4A4A4A" d="M130.906,38.801v4.488h-12.817v5.201h11.765v4.148h-11.765v5.948h13.091v4.488H112.75V38.801H130.906z"/>
		<path fill="#4A4A4A" d="M150.354,45.277c-0.316-0.51-0.713-0.957-1.189-1.342c-0.477-0.388-1.014-0.687-1.615-0.902
			c-0.6-0.215-1.229-0.322-1.887-0.322c-1.201,0-2.221,0.232-3.061,0.697c-0.838,0.465-1.52,1.088-2.039,1.869
			c-0.521,0.783-0.9,1.672-1.141,2.67c-0.238,0.998-0.355,2.027-0.355,3.094c0,1.02,0.119,2.012,0.355,2.975
			c0.238,0.963,0.617,1.83,1.141,2.603c0.52,0.771,1.201,1.389,2.039,1.852c0.84,0.466,1.857,0.697,3.061,0.697
			c1.633,0,2.906-0.498,3.824-1.496c0.92-0.996,1.479-2.312,1.684-3.942h5.168c-0.135,1.52-0.486,2.891-1.053,4.112
			c-0.568,1.226-1.314,2.269-2.244,3.129c-0.93,0.861-2.018,1.521-3.266,1.974c-1.246,0.453-2.617,0.68-4.113,0.68
			c-1.857,0-3.531-0.324-5.016-0.969c-1.484-0.646-2.737-1.535-3.756-2.67c-1.021-1.133-1.804-2.465-2.347-3.994
			c-0.545-1.531-0.815-3.18-0.815-4.947c0-1.814,0.271-3.496,0.815-5.049c0.543-1.553,1.326-2.908,2.347-4.064
			c1.02-1.154,2.27-2.061,3.756-2.719c1.484-0.658,3.156-0.986,5.016-0.986c1.338,0,2.602,0.193,3.791,0.578
			s2.256,0.947,3.195,1.684c0.939,0.738,1.719,1.648,2.33,2.736c0.609,1.088,0.996,2.334,1.154,3.74h-5.168
			C150.875,46.35,150.672,45.787,150.354,45.277z"/>
		<path fill="#4A4A4A" d="M165.314,38.801v24.275h-5.338V38.801H165.314z"/>
		<path fill="#4A4A4A" d="M180.479,38.801c1.562,0,3.02,0.25,4.369,0.748c1.348,0.498,2.516,1.246,3.502,2.244
			c0.984,0.998,1.756,2.244,2.311,3.74s0.832,3.252,0.832,5.27c0,1.768-0.227,3.4-0.68,4.896s-1.139,2.787-2.057,3.875
			s-2.062,1.943-3.434,2.568c-1.373,0.623-2.988,0.934-4.846,0.934h-10.471V38.801H180.479z M180.104,58.588
			c0.771,0,1.52-0.123,2.244-0.373s1.371-0.664,1.938-1.24c0.566-0.578,1.021-1.332,1.359-2.262c0.34-0.93,0.51-2.062,0.51-3.4
			c0-1.225-0.119-2.328-0.355-3.313c-0.238-0.985-0.631-1.83-1.174-2.533c-0.545-0.702-1.264-1.239-2.158-1.614
			c-0.896-0.373-2.002-0.562-3.314-0.562h-3.809v15.299L180.104,58.588L180.104,58.588z"/>
		<path fill="#4A4A4A" d="M213.355,38.801v4.488h-12.816v5.201h11.764v4.148h-11.764v5.948h13.09v4.488h-18.428V38.801H213.355z"/>
	</g>
	<g id="g4014" transform="translate(0.246625,-0.328125)">
		<path id="path19" fill="#4A4A4A" d="M103.568,9.104v14.312c0,4.47-0.592,7.972-6.688,7.972l0,0c-6.242,0-6.242-4.958-6.242-7.972
			l0,0V9.104h-3.293v14.348c0,4.401,0.42,10.881,9.812,10.881l0,0c9.701,0,9.701-7.591,9.701-10.881l0,0V9.104H103.568
			L103.568,9.104z M132.573,9.104v24.813h15.526v-2.945h-12.233V9.104H132.573L132.573,9.104z M108.797,21.337
			c0,2.772,0.695,6.828,3.225,9.738l0,0c1.559,1.802,4.124,3.258,8.423,3.258l0,0c2.666,0,8.348-0.832,10.256-8.283l0,0
			l-3.261-0.833c-0.656,3.016-2.564,6.309-7.273,6.309l0,0c-2.08,0-4.301-0.765-5.826-2.565l0,0
			c-2.078-2.422-2.146-6.585-2.146-7.657l0,0c0-3.985,1.42-9.807,8.248-9.807l0,0c4.573,0,5.961,3.185,6.617,5.199l0,0l3.227-0.766
			c-1.457-5.094-5.375-7.241-9.809-7.241l0,0C114.412,8.688,108.797,12.605,108.797,21.337"/>
		<g id="g3958">
			<path id="path3897" fill="#4A4A4A" d="M20.852,31.617l15.818-9.148l15.797,9.148l-15.797,9.127L20.852,31.617z"/>
			<path id="path3927" fill="#4A4A4A" d="M18.136,10.605v19.36l17.817-10.278V0.371L18.136,10.605z"/>
			<path id="path3941" fill="#4A4A4A" d="M37.366,0.328l17.861,10.278v19.382L37.366,19.667V0.328z"/>
			<path id="path3943" fill="#4A4A4A" d="M56.639,32.53l16.948,9.669l0.065,20.578l-17.013-9.715V32.53z"/>
			<path id="path3945" fill="#4A4A4A" d="M53.856,34.507v17.729l-15.775,9.127v-17.75L53.856,34.507z"/>
			<path id="path3947" fill="#4A4A4A" d="M19.482,34.507l15.818,9.125v17.775L19.482,52.26V34.507z"/>
			<path id="path3949" fill="#4A4A4A" d="M16.702,32.551v20.49l-16.948,9.777V42.33L16.702,32.551z"/>
			<path id="path3951" fill="#4A4A4A" d="M0.449,64.057l16.948-9.799l17.709,10.234L18.158,74.27L0.449,64.057z"/>
			<path id="path3953" fill="#4A4A4A" d="M38.908,64.102l17.013-9.819l16.535,9.405l-17.013,9.89L38.908,64.102z"/>
		</g>
	</g>
</g>
</svg>
