<?xml version="1.0" encoding="utf-8"?>
<!-- Generator: Adobe Illustrator 16.0.4, SVG Export Plug-In . SVG Version: 6.00 Build 0)  -->
<!DOCTYPE svg PUBLIC "-//W3C//DTD SVG 1.1//EN" "http://www.w3.org/Graphics/SVG/1.1/DTD/svg11.dtd">
<svg version="1.1" xmlns="http://www.w3.org/2000/svg" xmlns:xlink="http://www.w3.org/1999/xlink" x="0px" y="0px"
	 width="143.709px" height="40.417px" viewBox="0 0 143.709 40.417" enable-background="new 0 0 143.709 40.417"
	 xml:space="preserve">
<g id="Layer_2">
	<rect x="0.207" y="0.114" fill-rule="evenodd" clip-rule="evenodd" fill="#FFFFFF" width="142.5" height="40.306"/>
</g>
<g id="Layer_1">
	<path fill-rule="evenodd" clip-rule="evenodd" d="M0,40.395h27.55c-6.57-4.664-6.184-12.489-6.184-12.489l0.047-26.468h13.164
		L34.503,27.96c0,0-0.297,5.711,5.828,5.711c6.168,0,6.004-5.711,6.004-5.711l0.047-26.5l13.186,0.052v26.497
		c0,0-0.047,7.769-6.721,12.409h21.009c-5.984-3.448-8.957-9.707-9.273-18.344c0-14.168,10.476-22.109,21.753-22.016
		c14.594-0.219,20.199,11.297,20.199,11.297L95.61,16.688c0,0-2.449-6.747-8.551-6.783c-5.285-0.047-9.445,4.375-9.199,11.9
		c0.242,7.53,2.988,11.354,9.234,11.66c6.203,0.297,8.379-6.699,8.379-6.699l11.031,5.276c0,0-1.762,4.984-7.258,8.375h13.027
		l-0.047-38.915h13.051l-0.07,30.454l17.211-0.055v8.512h1.289L143.709,0L0,0.001V40.395z M7.519,1.219l0.531,0.94L7.89,2.344V2.96
		l0.238,0.234v0.254c0,0,0.785,0.328,1.336,0.879S10.3,5.784,10.3,5.784l0.047,0.996l0.422,0.368v0.3l-0.223,0.153l-0.047,0.261
		l0.266,0.317l-0.047,0.539L7.546,7.883L4.378,8.727L4.331,8.191l0.266-0.317L4.55,7.605L4.323,7.46V7.159l0.426-0.367l0.047-1.004
		c0,0,0.281-0.897,0.836-1.448c0.547-0.552,1.336-0.888,1.336-0.888v-0.25l0.234-0.233V2.352L7.046,2.171l0.492-0.948L7.519,1.219z
		 M7.565,8.391l6.918,1.5v0.397h-0.266v0.75h-0.305v0.203l-0.184,0.047l-0.055,4.497h0.121v0.364h0.52v0.968h0.629v1H0.202v-0.996
		h0.629v-0.965h0.52v-0.367h0.121l-0.047-4.497l-0.188-0.047v-0.194H0.933v-0.75H0.667V9.895l6.98-1.485L7.565,8.391z M7.097,11.016
		v0.229h-0.18v4.236h0.219v0.261H8.03v-0.233h0.219v-4.271H8.05v-0.199H7.116L7.097,11.016z M9.335,11.016v0.229H9.151v4.239H9.37
		v0.262h0.898V15.52h0.219v-4.271h-0.203v-0.198h-0.93L9.335,11.016z M2.601,11.016v0.226H2.417v4.236h0.219v0.261H3.53v-0.233
		h0.219v-4.271H3.55v-0.195H2.616L2.601,11.016z M4.808,11.016v0.229h-0.18v4.239h0.219v0.262h0.895v-0.229H5.96v-4.271H5.761
		v-0.194H4.827L4.808,11.016z M11.64,11.016v0.229h-0.18v4.239h0.219v0.262h0.895v-0.229h0.219v-4.271h-0.199v-0.194h-0.934
		L11.64,11.016z"/>
</g>
</svg>
