<?xml version="1.0" encoding="utf-8"?>
<!-- Generator: Adobe Illustrator 16.0.4, SVG Export Plug-In . SVG Version: 6.00 Build 0)  -->
<!DOCTYPE svg PUBLIC "-//W3C//DTD SVG 1.1//EN" "http://www.w3.org/Graphics/SVG/1.1/DTD/svg11.dtd">
<svg version="1.1" id="Layer_1" xmlns="http://www.w3.org/2000/svg" xmlns:xlink="http://www.w3.org/1999/xlink" x="0px" y="0px"
	 width="303px" height="160.4px" viewBox="0 0 303 160.4" enable-background="new 0 0 303 160.4" xml:space="preserve">
<g>
	<g>
		<g>
			<path d="M248.4,19.9v22.7l-22.1,12.6V32.4L248.4,19.9 M250.4,16.5l-26.1,14.8v27.4l26.1-14.9V16.5L250.4,16.5z"/>
		</g>
		<g>
			<path d="M252.4,19.9l22.2,12.5v22.8l-22.2-12.6V19.9 M250.4,16.5v27.3l26.2,14.9V31.3L250.4,16.5L250.4,16.5z"/>
		</g>
		<g>
			<path d="M222.3,62.1v24.4l-22,12.5V74.6L222.3,62.1 M224.3,58.7l-26,14.7v29.1l26-14.8V58.7L224.3,58.7z"/>
		</g>
		<g>
			<path d="M278.6,62.2l21.7,12.5V99l-21.7-12.4V62.2 M276.6,58.7v29l25.7,14.7v-29L276.6,58.7L276.6,58.7z"/>
		</g>
		<g>
			<path d="M224.3,90l22,12.5l-22,12.5l-21.9-12.5L224.3,90 M224.3,87.7l-26,14.8l26,14.8l26.1-14.8L224.3,87.7L224.3,87.7z"/>
		</g>
		<g>
			<path d="M276.6,90l21.7,12.4l-21.7,12.5l-22.1-12.4L276.6,90 M276.6,87.7l-26.2,14.8l26.2,14.7l25.7-14.8L276.6,87.7L276.6,87.7z
				"/>
		</g>
		<g>
			<path d="M226.3,62.1l22.1,12.5V99l-22.1-12.5V62.1 M224.3,58.7v29l26.1,14.8v-29L224.3,58.7L224.3,58.7z"/>
		</g>
		<g>
			<path d="M274.6,62.1v24.4L252.4,99V74.6L274.6,62.1 M276.6,58.7l-26.2,14.8v29l26.2-14.8V58.7L276.6,58.7z"/>
		</g>
		<g>
			<path d="M250.4,46.2l22.1,12.6l-22.1,12.5l-22-12.5L250.4,46.2 M250.4,43.8l-26.1,14.9l26.1,14.8l26.2-14.8L250.4,43.8
				L250.4,43.8z"/>
		</g>
	</g>
	<line fill="none" stroke="#000000" stroke-width="3" stroke-miterlimit="10" x1="-0.7" y1="132.9" x2="36" y2="132.9"/>
	<line fill="none" stroke="#000000" stroke-width="3" stroke-miterlimit="10" x1="-0.5" y1="0.7" x2="36.3" y2="0.7"/>
	<g>
		<path d="M0.3,16.5H7c2,0,3.8,0.2,5.5,0.6c1.7,0.4,3.1,1,4.4,2c1.3,0.9,2.3,2.2,3,3.8s1.1,3.6,1.1,5.9c0,2.3-0.4,4.3-1.1,5.9
			c-0.7,1.6-1.8,2.9-3,3.8c-1.3,0.9-2.8,1.6-4.4,2C10.9,40.7,9,40.9,7,40.9H0.3V16.5z M5.2,37.1H8c1,0,2-0.2,3-0.6
			c1-0.4,1.8-0.9,2.6-1.6c0.8-0.7,1.4-1.6,1.8-2.7c0.4-1.1,0.7-2.2,0.7-3.5s-0.2-2.5-0.7-3.5c-0.4-1.1-1-1.9-1.8-2.7
			c-0.8-0.7-1.6-1.3-2.6-1.6c-1-0.4-2-0.6-3-0.6H5.2V37.1z"/>
		<path d="M26.2,16.5h4.9v24.4h-4.9V16.5z"/>
		<path d="M56.5,21.2c-0.9-0.4-1.9-0.7-3.1-1c-1.1-0.2-2.2-0.3-3.2-0.3c-2.8,0-4.9,0.8-6.5,2.5c-1.6,1.7-2.3,3.8-2.3,6.4
			c0,2.5,0.7,4.6,2.2,6.3c1.5,1.6,3.5,2.4,6.1,2.4c1.2,0,2.3-0.1,3.2-0.3v-6.4h-5.2v-3.9h9.9v13.2c-1.5,0.4-2.9,0.7-4.1,0.9
			c-1.3,0.2-2.5,0.3-3.8,0.3c-4.1,0-7.3-1-9.7-3c-1.2-1-2.1-2.3-2.8-3.9c-0.6-1.5-1-3.3-1-5.4c0-4.2,1.2-7.4,3.6-9.6
			c2.4-2.3,5.7-3.4,9.8-3.4c1.4,0,2.6,0.1,3.8,0.3c1.2,0.2,2.3,0.4,3.4,0.8L56.5,21.2z"/>
		<path d="M63.3,16.5h4.9v24.4h-4.9V16.5z"/>
		<path d="M79,20.4h-7v-3.9h18.9v3.9h-7v20.6H79V20.4z"/>
		<path d="M99.2,16.5h5.5l9.6,24.4h-5.4l-2.1-5.6h-9.9l-2.1,5.6h-5.1L99.2,16.5z M101.9,21.4L101.9,21.4l-3.6,10.1h7.1L101.9,21.4z"
			/>
		<path d="M118.6,16.5h4.9v20.6h9.5v3.9h-14.4V16.5z"/>
		<path d="M0.3,54.5h8.5c0.9,0,1.8,0.1,2.7,0.2c0.9,0.2,1.7,0.5,2.5,0.9c0.8,0.5,1.4,1.1,1.9,1.9c0.5,0.8,0.7,1.9,0.7,3.1
			c0,1.4-0.4,2.6-1.3,3.6c-0.9,1-2.1,1.6-3.5,1.9v0.1c1.7,0.2,3,0.8,4.1,1.8c1,1,1.5,2.3,1.5,3.8c0,1.4-0.3,2.6-0.9,3.6
			s-1.3,1.7-2.2,2.2s-1.8,0.8-2.7,1c-1,0.2-1.9,0.3-2.8,0.3H0.3V54.5z M5.2,64.4h2c0.6,0,1.1,0,1.7-0.1c0.5-0.1,1-0.2,1.5-0.4
			c0.5-0.2,0.8-0.5,1.1-0.9c0.3-0.4,0.4-0.9,0.4-1.5c0-0.7-0.1-1.2-0.4-1.6c-0.3-0.4-0.6-0.7-1.1-0.9c-0.4-0.2-0.9-0.3-1.5-0.4
			c-0.5-0.1-1.1-0.1-1.8-0.1H5.2V64.4z M5.2,75.1h2.3c0.7,0,1.3,0,1.8-0.1c0.6-0.1,1.1-0.3,1.6-0.5c0.5-0.3,0.9-0.6,1.2-1.1
			c0.3-0.4,0.4-1,0.4-1.7c0-0.8-0.1-1.4-0.4-1.9c-0.3-0.5-0.7-0.9-1.1-1.1c-0.5-0.3-1-0.4-1.6-0.5C8.9,68.1,8.2,68,7.5,68H5.2V75.1z
			"/>
		<path d="M22.6,54.5h4.9v14.1c0,2.2,0.4,3.9,1.2,5.1c0.8,1.2,2.1,1.8,3.9,1.8s3.1-0.6,3.9-1.8c0.8-1.2,1.2-2.9,1.2-5.1V54.5h4.9
			v15.6c0,3.2-0.9,5.5-2.6,7c-1.7,1.5-4.2,2.2-7.4,2.2c-3.2,0-5.7-0.7-7.4-2.2c-1.7-1.5-2.6-3.8-2.6-7V54.5z"/>
		<path d="M62.2,59c-1.6-0.7-3.3-1-5-1c-0.5,0-0.9,0.1-1.4,0.2c-0.4,0.1-0.9,0.3-1.2,0.6c-0.4,0.3-0.7,0.6-0.9,1.1
			c-0.2,0.4-0.4,1-0.4,1.6c0,0.8,0.3,1.4,1,1.9c0.7,0.4,1.7,0.9,3.1,1.5c1,0.4,1.9,0.8,2.6,1.1c0.7,0.3,1.3,0.8,2,1.3
			c0.6,0.5,1.1,1.2,1.5,2c0.4,0.8,0.6,1.8,0.6,2.9c0,1.3-0.2,2.4-0.7,3.4c-0.5,1-1.1,1.7-2,2.3c-0.8,0.6-1.8,1-2.9,1.3
			c-1.1,0.3-2.3,0.4-3.6,0.4c-1.1,0-2-0.1-2.8-0.2c-0.7-0.1-1.7-0.3-3-0.6l-0.5-0.1l0.5-4.4c0.9,0.5,1.8,0.8,2.7,1.1
			c0.9,0.3,1.9,0.4,2.8,0.4c1.1,0,2.1-0.3,3-0.8c0.9-0.5,1.4-1.3,1.4-2.3c0-0.9-0.3-1.6-1-2.1c-0.7-0.5-1.8-1-3.2-1.6
			c-1-0.4-1.8-0.8-2.5-1.1c-0.7-0.3-1.3-0.8-1.9-1.3c-0.6-0.5-1.1-1.2-1.5-2c-0.4-0.8-0.6-1.7-0.6-2.8c0-1.3,0.2-2.4,0.7-3.4
			c0.5-1,1.1-1.7,1.9-2.3c0.8-0.6,1.7-1,2.7-1.3c1-0.3,2.1-0.4,3.2-0.4c2.1,0,4.1,0.3,5.8,0.9L62.2,59z"/>
		<path d="M69.2,54.5h4.9v24.4h-4.9V54.5z"/>
		<path d="M80.1,54.5h6l9.3,18.3h0.1V54.5h4.7v24.4h-6l-9.3-18.3h-0.1v18.3h-4.7V54.5z"/>
		<path d="M106.7,54.5h14.4v3.9h-9.5v6h8.7v3.8h-8.7v6.9h9.6v3.8h-14.5V54.5z"/>
		<path d="M140.3,59c-1.6-0.7-3.3-1-5-1c-0.5,0-0.9,0.1-1.4,0.2c-0.4,0.1-0.9,0.3-1.2,0.6c-0.4,0.3-0.7,0.6-0.9,1.1
			c-0.2,0.4-0.4,1-0.4,1.6c0,0.8,0.3,1.4,1,1.9c0.7,0.4,1.7,0.9,3.1,1.5c1,0.4,1.9,0.8,2.6,1.1c0.7,0.3,1.3,0.8,2,1.3
			c0.6,0.5,1.1,1.2,1.5,2c0.4,0.8,0.6,1.8,0.6,2.9c0,1.3-0.2,2.4-0.7,3.4c-0.5,1-1.1,1.7-2,2.3c-0.8,0.6-1.8,1-2.9,1.3
			c-1.1,0.3-2.3,0.4-3.6,0.4c-1.1,0-2-0.1-2.8-0.2c-0.7-0.1-1.7-0.3-3-0.6l-0.5-0.1l0.5-4.4c0.9,0.5,1.8,0.8,2.7,1.1
			c0.9,0.3,1.9,0.4,2.8,0.4c1.1,0,2.1-0.3,3-0.8c0.9-0.5,1.4-1.3,1.4-2.3c0-0.9-0.3-1.6-1-2.1c-0.7-0.5-1.8-1-3.2-1.6
			c-1-0.4-1.8-0.8-2.5-1.1c-0.7-0.3-1.3-0.8-1.9-1.3c-0.6-0.5-1.1-1.2-1.5-2c-0.4-0.8-0.6-1.7-0.6-2.8c0-1.3,0.2-2.4,0.7-3.4
			c0.5-1,1.1-1.7,1.9-2.3c0.8-0.6,1.7-1,2.7-1.3c1-0.3,2.1-0.4,3.2-0.4c2.1,0,4.1,0.3,5.8,0.9L140.3,59z"/>
		<path d="M160.8,59c-1.6-0.7-3.3-1-5-1c-0.5,0-0.9,0.1-1.4,0.2c-0.4,0.1-0.9,0.3-1.2,0.6c-0.4,0.3-0.7,0.6-0.9,1.1
			c-0.2,0.4-0.4,1-0.4,1.6c0,0.8,0.3,1.4,1,1.9s1.7,0.9,3.1,1.5c1,0.4,1.9,0.8,2.6,1.1c0.7,0.3,1.3,0.8,2,1.3c0.6,0.5,1.1,1.2,1.5,2
			c0.4,0.8,0.6,1.8,0.6,2.9c0,1.3-0.2,2.4-0.7,3.4c-0.5,1-1.1,1.7-2,2.3s-1.8,1-2.9,1.3s-2.3,0.4-3.6,0.4c-1.1,0-2-0.1-2.8-0.2
			c-0.7-0.1-1.7-0.3-3-0.6l-0.5-0.1l0.5-4.4c0.9,0.5,1.8,0.8,2.7,1.1c0.9,0.3,1.9,0.4,2.8,0.4c1.1,0,2.1-0.3,3-0.8
			c0.9-0.5,1.4-1.3,1.4-2.3c0-0.9-0.3-1.6-1-2.1c-0.7-0.5-1.8-1-3.2-1.6c-1-0.4-1.8-0.8-2.5-1.1c-0.7-0.3-1.3-0.8-1.9-1.3
			c-0.6-0.5-1.1-1.2-1.5-2c-0.4-0.8-0.6-1.7-0.6-2.8c0-1.3,0.2-2.4,0.7-3.4c0.5-1,1.1-1.7,1.9-2.3c0.8-0.6,1.7-1,2.7-1.3
			c1-0.3,2.1-0.4,3.2-0.4c2.1,0,4.1,0.3,5.8,0.9L160.8,59z"/>
		<path d="M0.3,92.5h4.9v20.6h9.5v3.8H0.3V92.5z"/>
		<path d="M25.9,92.5h5.5l9.6,24.4h-5.4l-2.1-5.6h-9.9l-2.1,5.6h-5.1L25.9,92.5z M28.6,97.4L28.6,97.4L25,107.5h7.1L28.6,97.4z"/>
		<path d="M45.2,92.5h8.5c0.9,0,1.8,0.1,2.7,0.2c0.9,0.2,1.7,0.5,2.5,0.9c0.8,0.5,1.4,1.1,1.9,1.9c0.5,0.8,0.7,1.9,0.7,3.2
			c0,1.4-0.4,2.6-1.3,3.6c-0.9,1-2.1,1.6-3.5,1.9v0.1c1.7,0.2,3,0.8,4.1,1.8s1.5,2.3,1.5,3.8c0,1.4-0.3,2.6-0.9,3.6
			s-1.3,1.7-2.2,2.2s-1.8,0.8-2.7,1c-1,0.2-1.9,0.3-2.8,0.3h-8.5V92.5z M50.1,102.4h2c0.6,0,1.1,0,1.7-0.1s1-0.2,1.5-0.4
			c0.5-0.2,0.8-0.5,1.1-0.9s0.4-0.9,0.4-1.5c0-0.7-0.1-1.2-0.4-1.6s-0.6-0.7-1.1-0.9c-0.4-0.2-0.9-0.3-1.5-0.4
			c-0.5-0.1-1.1-0.1-1.8-0.1h-1.9V102.4z M50.1,113.1h2.3c0.7,0,1.3,0,1.8-0.1c0.6-0.1,1.1-0.3,1.6-0.5c0.5-0.3,0.9-0.6,1.2-1.1
			c0.3-0.4,0.4-1,0.4-1.7c0-0.8-0.1-1.4-0.4-1.9c-0.3-0.5-0.7-0.9-1.1-1.1c-0.5-0.3-1-0.4-1.6-0.5c-0.6-0.1-1.2-0.1-1.9-0.1h-2.3
			V113.1z"/>
		<path d="M80.8,97c-1.6-0.7-3.3-1.1-5-1.1c-0.5,0-0.9,0.1-1.4,0.2c-0.4,0.1-0.9,0.3-1.2,0.6c-0.4,0.3-0.7,0.6-0.9,1
			c-0.2,0.4-0.4,1-0.4,1.6c0,0.8,0.3,1.4,1,1.9c0.7,0.4,1.7,0.9,3.1,1.5c1,0.4,1.9,0.8,2.6,1.1c0.7,0.3,1.3,0.8,2,1.3
			c0.6,0.5,1.1,1.2,1.5,2c0.4,0.8,0.6,1.8,0.6,2.9c0,1.3-0.2,2.4-0.7,3.4c-0.5,1-1.1,1.7-2,2.3c-0.8,0.6-1.8,1-2.9,1.3
			c-1.1,0.3-2.3,0.4-3.6,0.4c-1.1,0-2-0.1-2.8-0.2c-0.7-0.1-1.7-0.3-3-0.6l-0.5-0.1l0.5-4.4c0.9,0.5,1.8,0.8,2.7,1.1
			s1.9,0.4,2.8,0.4c1.1,0,2.1-0.3,3-0.8s1.4-1.3,1.4-2.3c0-0.9-0.3-1.6-1-2.1c-0.7-0.5-1.8-1-3.2-1.6c-1-0.4-1.8-0.8-2.5-1.1
			c-0.7-0.3-1.3-0.8-1.9-1.3c-0.6-0.5-1.1-1.2-1.5-2c-0.4-0.8-0.6-1.7-0.6-2.8c0-1.3,0.2-2.4,0.7-3.4c0.5-1,1.1-1.7,1.9-2.3
			c0.8-0.6,1.7-1,2.7-1.3c1-0.3,2.1-0.4,3.2-0.4c2.1,0,4.1,0.3,5.8,0.9L80.8,97z"/>
	</g>
</g>
</svg>
