<?xml version="1.0" encoding="utf-8"?>
<!-- Generator: Adobe Illustrator 16.0.4, SVG Export Plug-In . SVG Version: 6.00 Build 0)  -->
<!DOCTYPE svg PUBLIC "-//W3C//DTD SVG 1.1//EN" "http://www.w3.org/Graphics/SVG/1.1/DTD/svg11.dtd">
<svg version="1.1" id="Layer_1" xmlns="http://www.w3.org/2000/svg" xmlns:xlink="http://www.w3.org/1999/xlink" x="0px" y="0px"
	 width="595.3px" height="841.9px" viewBox="0 0 595.3 841.9" enable-background="new 0 0 595.3 841.9" xml:space="preserve">
<g>
	<defs>
		<rect id="SVGID_1_" x="157" y="362.8" width="278.4" height="116.1"/>
	</defs>
	<clipPath id="SVGID_2_">
		<use xlink:href="#SVGID_1_"  overflow="visible"/>
	</clipPath>
	<ellipse clip-path="url(#SVGID_2_)" fill="none" stroke="#6C6361" stroke-width="1.417" cx="403.3" cy="412.8" rx="22" ry="22"/>
	<path clip-path="url(#SVGID_2_)" fill="#FFFFFF" d="M403.3,423.8c6.1,0,11-4.9,11-11s-4.9-11-11-11c-6.1,0-11,4.9-11,11
		S397.2,423.8,403.3,423.8"/>
	
		<path clip-path="url(#SVGID_2_)" fill="none" stroke="#FFFFFF" stroke-width="2.126" stroke-linecap="round" stroke-linejoin="round" stroke-dasharray="0,5.758" d="
		M408.8,422.4c2.5-1.4,4.4-3.8,5.1-6.7"/>
	
		<path clip-path="url(#SVGID_2_)" fill="none" stroke="#FFFFFF" stroke-width="2.126" stroke-linecap="round" stroke-linejoin="round" stroke-dasharray="0,5.758" d="
		M412.8,407.4c-1.4-2.5-3.8-4.4-6.7-5.1"/>
	
		<path clip-path="url(#SVGID_2_)" fill="none" stroke="#FFFFFF" stroke-width="2.126" stroke-linecap="round" stroke-linejoin="round" stroke-dasharray="0,5.758" d="
		M397.8,403.3c-2.5,1.4-4.4,3.8-5.1,6.7"/>
	
		<path clip-path="url(#SVGID_2_)" fill="none" stroke="#FFFFFF" stroke-width="2.126" stroke-linecap="round" stroke-linejoin="round" stroke-dasharray="0,5.758" d="
		M393.8,418.3c1.4,2.5,3.8,4.4,6.7,5.1"/>
	
		<path clip-path="url(#SVGID_2_)" fill="none" stroke="#FFFFFF" stroke-width="2.126" stroke-linecap="round" stroke-linejoin="round" d="
		M403.3,423.8L403.3,423.8 M392.3,412.9L392.3,412.9 M403.3,401.9L403.3,401.9 M414.3,412.9L414.3,412.9"/>
	<ellipse clip-path="url(#SVGID_2_)" fill="none" stroke="#6C6361" stroke-width="1.417" cx="179.7" cy="425.2" rx="22" ry="22"/>
</g>
<line fill="none" stroke="#FFFFFF" stroke-width="2.126" stroke-linecap="round" stroke-linejoin="round" stroke-dasharray="0,6.734" x1="179.7" y1="414.5" x2="179.7" y2="370.7"/>
<path fill="none" stroke="#FFFFFF" stroke-width="2.126" stroke-linecap="round" stroke-linejoin="round" d="M179.7,367.3
	L179.7,367.3 M179.7,421.2L179.7,421.2"/>
<g>
	<defs>
		<rect id="SVGID_3_" x="157" y="362.8" width="278.4" height="116.1"/>
	</defs>
	<clipPath id="SVGID_4_">
		<use xlink:href="#SVGID_3_"  overflow="visible"/>
	</clipPath>
	<circle clip-path="url(#SVGID_4_)" fill="none" stroke="#FFFFFF" stroke-width="2.126" cx="179.7" cy="425.5" r="4.3"/>
	<polygon clip-path="url(#SVGID_4_)" fill="#FFFFFF" points="179.7,362.8 173.7,369.3 185.7,369.3 	"/>
	<ellipse clip-path="url(#SVGID_4_)" fill="none" stroke="#6C6361" stroke-width="1.417" cx="290.2" cy="413" rx="22" ry="22"/>
	
		<path clip-path="url(#SVGID_4_)" fill="none" stroke="#FFFFFF" stroke-width="2.126" stroke-linecap="round" stroke-linejoin="round" stroke-dasharray="0,6.298" d="
		M309.4,386.7c-7.5-5.7-17.2-8.2-26.8-6"/>
	
		<path clip-path="url(#SVGID_4_)" fill="none" stroke="#FFFFFF" stroke-width="2.126" stroke-linecap="round" stroke-linejoin="round" stroke-dasharray="0,6.432" d="
		M273.7,384.1c-12.4,7-18.9,21.5-15.7,35.7"/>
	
		<path clip-path="url(#SVGID_4_)" fill="none" stroke="#FFFFFF" stroke-width="2.126" stroke-linecap="round" stroke-linejoin="round" stroke-dasharray="0,6.434" d="
		M261.4,428.8c7,12.6,21.4,19.3,35.5,16.3"/>
	
		<path clip-path="url(#SVGID_4_)" fill="none" stroke="#FFFFFF" stroke-width="2.126" stroke-linecap="round" stroke-linejoin="round" stroke-dasharray="0,6.919" d="
		M306.4,441.7c8-3.8,13.3-9.3,15-17.8"/>
	
		<path clip-path="url(#SVGID_4_)" fill="none" stroke="#FFFFFF" stroke-width="2.126" stroke-linecap="round" stroke-linejoin="round" d="
		M321.9,420.5L321.9,420.5 M300,444.2L300,444.2 M258.8,422.9L258.8,422.9 M279.6,381.5L279.6,381.5 M314,391L314,391"/>
	<polygon clip-path="url(#SVGID_4_)" fill="#FFFFFF" points="322.2,415.9 315.7,421.9 327.7,422.9 	"/>
	<g clip-path="url(#SVGID_4_)">
		<text transform="matrix(1 0 0 1 171.5356 474.4141)"><tspan x="0" y="0" fill="#6C6361" font-family="'HelveticaNeue-ThinItalic'" font-size="11">t</tspan><tspan x="2.7" y="0" fill="#6C6361" font-family="'HelveticaNeue-ThinItalic'" font-size="11">est</tspan></text>
	</g>
	<g clip-path="url(#SVGID_4_)">
		<text transform="matrix(1 0 0 1 277.9717 474.4141)"><tspan x="0" y="0" fill="#6C6361" font-family="'HelveticaNeue-ThinItalic'" font-size="11">i</tspan><tspan x="1.8" y="0" fill="#6C6361" font-family="'HelveticaNeue-ThinItalic'" font-size="11">t</tspan><tspan x="4.5" y="0" fill="#6C6361" font-family="'HelveticaNeue-ThinItalic'" font-size="11">e</tspan><tspan x="10.3" y="0" fill="#6C6361" font-family="'HelveticaNeue-ThinItalic'" font-size="11">r</tspan><tspan x="13.2" y="0" fill="#6C6361" font-family="'HelveticaNeue-ThinItalic'" font-size="11">a</tspan><tspan x="18.7" y="0" fill="#6C6361" font-family="'HelveticaNeue-ThinItalic'" font-size="11">t</tspan><tspan x="21.4" y="0" fill="#6C6361" font-family="'HelveticaNeue-ThinItalic'" font-size="11">e</tspan></text>
	</g>
	<g clip-path="url(#SVGID_4_)">
		<text transform="matrix(1 0 0 1 386.3652 474.4141)"><tspan x="0" y="0" fill="#6C6361" font-family="'HelveticaNeue-ThinItalic'" font-size="11">valida</tspan><tspan x="25.5" y="0" fill="#6C6361" font-family="'HelveticaNeue-ThinItalic'" font-size="11">t</tspan><tspan x="28.2" y="0" fill="#6C6361" font-family="'HelveticaNeue-ThinItalic'" font-size="11">e</tspan></text>
	</g>
</g>
</svg>
